<?xml version="1.0" standalone="no"?>
<!DOCTYPE svg PUBLIC "-//W3C//DTD SVG 20010904//EN"
 "http://www.w3.org/TR/2001/REC-SVG-20010904/DTD/svg10.dtd">
<svg version="1.0" xmlns="http://www.w3.org/2000/svg"
 width="1080.000000pt" height="1080.000000pt" viewBox="0 0 1080.000000 1080.000000"
 preserveAspectRatio="xMidYMid meet">

<g transform="translate(0.000000,1080.000000) scale(0.100000,-0.100000)"
fill="#000000" stroke="none">
<path d="M1980 10795 c0 -10 111 -56 120 -50 5 3 10 16 10 29 0 20 -5 22 -65
23 -36 1 -65 0 -65 -2z"/>
<path d="M2360 10772 c0 -34 7 -43 26 -35 8 3 14 18 14 34 0 22 -5 29 -20 29
-15 0 -20 -7 -20 -28z"/>
<path d="M4883 10773 c12 -27 35 -37 53 -22 28 23 16 44 -25 44 -36 0 -38 -1
-28 -22z"/>
<path d="M6575 10688 c3 -62 6 -125 5 -140 0 -16 4 -28 10 -28 5 0 10 10 10
21 0 19 4 21 31 15 17 -3 35 -6 40 -6 16 0 10 -26 -11 -50 -25 -29 -26 -50 -1
-50 13 0 23 11 31 35 16 49 43 47 38 -2 -3 -32 0 -38 17 -38 15 0 19 6 17 25
-1 14 -2 38 -3 54 0 40 -17 69 -35 62 -11 -4 -12 -2 -4 14 13 25 13 100 -1
156 l-11 44 -70 0 -69 0 6 -112z"/>
<path d="M8193 10780 c2 -30 24 -32 54 -5 l28 24 -42 1 c-36 0 -42 -3 -40 -20z"/>
<path d="M10765 10761 c-4 -27 -2 -49 10 -70 8 -17 18 -31 20 -31 3 0 5 32 5
70 0 54 -3 70 -14 70 -9 0 -17 -15 -21 -39z"/>
<path d="M1192 10778 c-18 -18 -14 -28 8 -28 11 0 20 6 20 14 0 21 -15 27 -28
14z"/>
<path d="M9147 10753 c-15 -15 -6 -33 17 -33 33 0 42 16 17 29 -23 13 -26 13
-34 4z"/>
<path d="M9657 10704 c-10 -11 3 -24 24 -24 10 0 19 7 19 15 0 15 -31 21 -43
9z"/>
<path d="M330 10680 c0 -22 21 -50 50 -65 34 -17 106 -20 116 -4 3 6 15 9 25
6 11 -3 19 -1 19 3 0 5 -19 11 -42 15 -24 4 -54 14 -68 23 -14 9 -29 17 -35
18 -5 1 -22 5 -37 9 -19 5 -28 3 -28 -5z"/>
<path d="M3786 10665 c-9 -24 5 -41 16 -20 7 11 7 20 0 27 -6 6 -12 3 -16 -7z"/>
<path d="M2100 10655 c-7 -8 -10 -22 -6 -30 3 -9 0 -15 -10 -15 -22 0 -27 -25
-14 -65 11 -34 37 -47 44 -22 2 6 11 36 20 66 9 29 16 60 16 67 0 19 -34 18
-50 -1z"/>
<path d="M8440 10656 c0 -8 8 -17 18 -22 27 -12 62 -14 62 -3 0 5 -9 9 -19 9
-10 0 -21 7 -25 15 -7 19 -36 20 -36 1z"/>
<path d="M8389 10639 c-11 -6 -11 -11 -1 -21 10 -10 15 -9 28 4 13 13 13 16 1
21 -7 3 -20 1 -28 -4z"/>
<path d="M576 10624 c-9 -23 -8 -24 13 -24 25 0 38 20 20 31 -20 12 -26 11
-33 -7z"/>
<path d="M10570 10633 c0 -5 7 -17 15 -27 11 -15 18 -17 27 -8 8 8 8 15 -2 27
-13 15 -40 21 -40 8z"/>
<path d="M676 10594 c-16 -11 -17 -17 -8 -26 9 -9 16 -8 29 5 23 23 5 41 -21
21z"/>
<path d="M1010 10590 c-12 -8 -11 -10 7 -10 12 0 25 5 28 10 8 13 -15 13 -35
0z"/>
<path d="M5897 10593 c-3 -5 -2 -26 2 -48 6 -37 9 -40 36 -37 17 2 38 13 49
25 18 22 18 22 -13 25 -18 2 -35 11 -41 23 -11 20 -25 25 -33 12z"/>
<path d="M10360 10584 c0 -9 5 -14 12 -12 18 6 21 28 4 28 -9 0 -16 -7 -16
-16z"/>
<path d="M173 10583 c-18 -6 -16 -23 1 -23 17 0 30 16 19 23 -5 2 -14 2 -20 0z"/>
<path d="M8770 10549 c0 -5 5 -7 10 -4 6 3 10 8 10 11 0 2 -4 4 -10 4 -5 0
-10 -5 -10 -11z"/>
<path d="M6255 10540 c-4 -6 -2 -17 4 -23 15 -15 25 -2 13 19 -7 12 -11 13
-17 4z"/>
<path d="M8826 10513 c-4 -9 -2 -21 4 -27 7 -7 10 -2 10 17 0 31 -5 34 -14 10z"/>
<path d="M6480 10490 c0 -5 5 -10 10 -10 6 0 10 5 10 10 0 6 -4 10 -10 10 -5
0 -10 -4 -10 -10z"/>
<path d="M1068 10463 c6 -2 18 -2 25 0 6 3 1 5 -13 5 -14 0 -19 -2 -12 -5z"/>
<path d="M3767 10463 c-14 -13 -7 -43 11 -43 24 1 55 26 47 39 -7 12 -48 15
-58 4z"/>
<path d="M6376 10438 c7 -25 22 -38 42 -38 18 0 15 14 -11 38 -30 28 -40 28
-31 0z"/>
<path d="M3555 10440 c-8 -13 9 -20 24 -11 10 6 9 10 -3 14 -8 3 -18 2 -21 -3z"/>
<path d="M3892 10428 c6 -18 28 -21 28 -4 0 9 -7 16 -16 16 -9 0 -14 -5 -12
-12z"/>
<path d="M7092 10428 c7 -20 58 -23 58 -4 0 11 -10 16 -31 16 -20 0 -29 -4
-27 -12z"/>
<path d="M830 10402 c0 -27 8 -32 41 -20 24 8 27 13 18 24 -17 21 -59 18 -59
-4z"/>
<path d="M1800 10359 c0 -14 5 -19 17 -17 26 5 29 38 4 38 -15 0 -21 -6 -21
-21z"/>
<path d="M314 10355 c-18 -7 -35 -18 -38 -24 -11 -18 60 -13 74 4 20 24 0 35
-36 20z"/>
<path d="M6425 10360 c-4 -6 -3 -16 3 -22 6 -6 12 -6 17 2 4 6 3 16 -3 22 -6
6 -12 6 -17 -2z"/>
<path d="M631 10351 c-34 -9 -49 -35 -32 -55 9 -11 31 -16 71 -16 51 0 58 -2
68 -26 10 -20 17 -24 34 -18 12 3 35 7 52 8 44 2 44 24 -1 31 -21 4 -54 17
-73 30 -63 40 -94 52 -119 46z"/>
<path d="M7450 10330 c0 -5 5 -10 10 -10 6 0 10 5 10 10 0 6 -4 10 -10 10 -5
0 -10 -4 -10 -10z"/>
<path d="M1504 10304 c-9 -34 7 -48 44 -39 39 8 51 35 17 35 -16 0 -25 6 -25
15 0 25 -29 17 -36 -11z"/>
<path d="M1418 10313 c7 -3 16 -2 19 1 4 3 -2 6 -13 5 -11 0 -14 -3 -6 -6z"/>
<path d="M6550 10308 c0 -9 5 -20 10 -23 13 -8 13 5 0 25 -8 13 -10 13 -10 -2z"/>
<path d="M6479 10269 c26 -21 37 -19 28 6 -4 8 -17 15 -29 15 l-23 -1 24 -20z"/>
<path d="M903 10256 c4 -10 7 -26 7 -37 0 -12 14 -26 40 -39 21 -11 44 -29 50
-40 21 -39 67 -14 77 42 2 12 -3 15 -17 11 -11 -3 -20 -11 -20 -18 0 -7 -6
-18 -14 -24 -19 -16 -30 3 -16 29 8 16 6 24 -10 40 -11 11 -28 20 -38 20 -10
0 -28 8 -42 17 -22 16 -23 16 -17 -1z"/>
<path d="M8440 10249 c0 -11 5 -17 10 -14 6 3 10 13 10 21 0 8 -4 14 -10 14
-5 0 -10 -9 -10 -21z"/>
<path d="M5838 10181 c-16 -15 -28 -33 -28 -40 0 -21 31 -8 53 22 30 39 10 53
-25 18z"/>
<path d="M7160 10200 c0 -5 9 -10 19 -10 11 0 23 5 26 10 4 6 -5 10 -19 10
-14 0 -26 -4 -26 -10z"/>
<path d="M2490 10190 c0 -5 5 -10 10 -10 6 0 10 5 10 10 0 6 -4 10 -10 10 -5
0 -10 -4 -10 -10z"/>
<path d="M1575 10179 c-11 -17 0 -20 21 -4 17 13 17 14 2 15 -9 0 -20 -5 -23
-11z"/>
<path d="M6539 10174 c-11 -13 -10 -17 2 -25 34 -21 56 5 25 30 -10 9 -16 7
-27 -5z"/>
<path d="M7725 10170 c-9 -15 32 -50 60 -50 34 0 31 16 -7 40 -37 23 -44 24
-53 10z"/>
<path d="M9392 10146 c-8 -18 -7 -30 4 -52 19 -36 34 -52 34 -36 0 14 36 16
45 2 3 -5 -1 -23 -9 -39 l-15 -29 47 -22 c26 -12 59 -31 74 -41 14 -11 33 -19
41 -19 8 0 20 -7 27 -15 33 -39 65 -6 77 78 5 35 2 41 -46 88 -28 27 -58 49
-67 49 -9 0 -42 14 -74 31 -48 25 -62 29 -79 20 -14 -8 -21 -8 -21 -1 0 19
-27 10 -38 -14z"/>
<path d="M6995 10110 c3 -5 13 -10 21 -10 8 0 14 5 14 10 0 6 -9 10 -21 10
-11 0 -17 -4 -14 -10z"/>
<path d="M8586 10095 c-34 -34 17 -61 57 -31 16 13 16 14 -7 30 -31 20 -31 20
-50 1z"/>
<path d="M6617 10093 c-10 -9 -9 -23 2 -23 5 0 11 7 15 15 5 15 -5 20 -17 8z"/>
<path d="M5780 10080 c0 -5 7 -10 15 -10 8 0 15 5 15 10 0 6 -7 10 -15 10 -8
0 -15 -4 -15 -10z"/>
<path d="M10405 10080 c-4 -6 5 -10 19 -10 14 0 26 5 26 10 0 6 -9 10 -19 10
-11 0 -23 -4 -26 -10z"/>
<path d="M4845 10070 c-3 -5 -5 -25 -3 -44 2 -28 5 -33 15 -24 15 12 18 78 4
78 -6 0 -12 -4 -16 -10z"/>
<path d="M6202 10069 c2 -6 8 -10 13 -10 5 0 11 4 13 10 2 6 -4 11 -13 11 -9
0 -15 -5 -13 -11z"/>
<path d="M4292 10056 c1 -10 8 -17 13 -17 15 1 12 24 -3 29 -9 3 -13 -2 -10
-12z"/>
<path d="M5000 10066 c0 -2 7 -9 15 -16 12 -10 15 -10 15 4 0 9 -7 16 -15 16
-8 0 -15 -2 -15 -4z"/>
<path d="M3490 10030 c0 -5 5 -10 10 -10 6 0 10 5 10 10 0 6 -4 10 -10 10 -5
0 -10 -4 -10 -10z"/>
<path d="M9772 10023 c-11 -22 -5 -43 12 -43 14 0 38 45 29 54 -12 12 -32 6
-41 -11z"/>
<path d="M5540 10020 c0 -5 4 -10 9 -10 6 0 13 5 16 10 3 6 -1 10 -9 10 -9 0
-16 -4 -16 -10z"/>
<path d="M6010 10010 c0 -5 7 -10 15 -10 8 0 15 5 15 10 0 6 -7 10 -15 10 -8
0 -15 -4 -15 -10z"/>
<path d="M2885 9990 c3 -5 8 -10 11 -10 2 0 4 5 4 10 0 6 -5 10 -11 10 -5 0
-7 -4 -4 -10z"/>
<path d="M4354 9985 c-12 -9 -14 -14 -6 -15 7 0 20 7 28 15 20 19 4 20 -22 0z"/>
<path d="M4898 9993 c6 -2 18 -2 25 0 6 3 1 5 -13 5 -14 0 -19 -2 -12 -5z"/>
<path d="M4890 9940 c-12 -7 -10 -12 10 -30 22 -20 25 -20 28 -5 5 24 -19 47
-38 35z"/>
<path d="M4583 9933 c-22 -8 -14 -32 12 -39 32 -8 43 1 29 23 -12 19 -23 24
-41 16z"/>
<path d="M2924 9915 c-10 -25 4 -47 28 -43 17 2 24 11 26 31 3 23 0 27 -23 27
-14 0 -28 -7 -31 -15z"/>
<path d="M10057 9903 c-4 -3 -7 -14 -7 -24 0 -10 -7 -22 -15 -27 -26 -14 0
-69 36 -77 16 -4 29 -13 29 -20 0 -16 30 -35 54 -35 16 0 52 82 43 98 -10 15
-68 1 -76 -20 -6 -17 -9 -16 -36 12 -22 23 -25 30 -12 30 18 0 33 42 22 59 -7
12 -28 14 -38 4z"/>
<path d="M2485 9880 c-3 -5 1 -10 9 -10 9 0 16 5 16 10 0 6 -4 10 -9 10 -6 0
-13 -4 -16 -10z"/>
<path d="M1647 9823 c-4 -3 -7 -19 -7 -35 0 -30 17 -38 26 -13 9 21 31 19 44
-5 13 -24 38 -26 47 -4 7 18 -12 34 -43 34 -12 0 -27 7 -34 15 -14 16 -23 19
-33 8z"/>
<path d="M8297 9803 c-12 -12 -7 -22 8 -17 8 4 15 10 15 15 0 11 -14 12 -23 2z"/>
<path d="M2982 9758 c-16 -16 -15 -43 1 -56 20 -17 111 10 115 34 2 14 -4 20
-20 21 -13 1 -37 4 -53 8 -18 3 -36 0 -43 -7z"/>
<path d="M4095 9761 c-3 -5 -1 -12 5 -16 5 -3 10 1 10 9 0 18 -6 21 -15 7z"/>
<path d="M6415 9760 c-3 -6 2 -13 12 -16 10 -3 28 -9 39 -14 25 -10 45 5 37
26 -6 16 -79 19 -88 4z"/>
<path d="M9225 9761 c-6 -11 9 -23 19 -14 9 9 7 23 -3 23 -6 0 -12 -4 -16 -9z"/>
<path d="M6207 9714 c-14 -15 -6 -34 14 -34 14 0 19 5 17 17 -3 18 -20 27 -31
17z"/>
<path d="M8050 9710 c0 -5 5 -10 10 -10 6 0 10 5 10 10 0 6 -4 10 -10 10 -5 0
-10 -4 -10 -10z"/>
<path d="M1405 9698 c-44 -12 -73 -37 -57 -47 22 -13 62 0 79 26 19 29 16 32
-22 21z"/>
<path d="M4257 9693 c-12 -11 -8 -23 7 -23 7 0 19 7 26 15 10 12 9 15 -7 15
-11 0 -23 -3 -26 -7z"/>
<path d="M1947 9684 c-11 -12 3 -24 29 -24 27 0 32 15 8 24 -20 8 -29 8 -37 0z"/>
<path d="M16 9664 c-10 -26 6 -43 32 -33 26 10 29 34 6 43 -24 9 -31 7 -38
-10z"/>
<path d="M1770 9670 c0 -5 9 -10 20 -10 11 0 20 5 20 10 0 6 -9 10 -20 10 -11
0 -20 -4 -20 -10z"/>
<path d="M5530 9639 c-9 -33 -9 -44 2 -50 22 -15 25 -11 27 41 2 61 -14 65
-29 9z"/>
<path d="M6975 9670 c-4 -6 -2 -17 4 -23 15 -15 25 -2 13 19 -7 12 -11 13 -17
4z"/>
<path d="M3300 9655 c0 -10 10 -15 31 -15 27 0 30 2 19 15 -7 8 -21 15 -31 15
-11 0 -19 -7 -19 -15z"/>
<path d="M3685 9660 c-3 -6 1 -7 9 -4 18 7 21 14 7 14 -6 0 -13 -4 -16 -10z"/>
<path d="M4118 9663 c-10 -2 -18 -9 -18 -14 0 -14 16 -11 30 6 7 8 11 14 9 14
-2 -1 -12 -3 -21 -6z"/>
<path d="M10060 9640 c-9 -6 -10 -10 -3 -10 6 0 15 5 18 10 8 12 4 12 -15 0z"/>
<path d="M3428 9597 c-26 -15 -38 -29 -38 -45 0 -21 3 -22 35 -16 22 4 41 2
50 -6 12 -10 15 -9 15 4 0 9 -4 16 -10 16 -5 0 -7 13 -4 29 8 39 -4 43 -48 18z"/>
<path d="M6427 9593 c-5 -22 0 -34 24 -56 36 -33 58 -26 29 10 -11 14 -20 31
-20 38 0 7 -6 18 -14 24 -11 9 -15 6 -19 -16z"/>
<path d="M6160 9591 c0 -22 25 -45 40 -36 16 10 12 33 -9 45 -27 14 -31 13
-31 -9z"/>
<path d="M8980 9580 c-11 -7 -12 -12 -3 -21 14 -14 46 -4 41 13 -6 16 -20 19
-38 8z"/>
<path d="M10175 9569 c-10 -15 1 -23 20 -15 9 3 13 10 10 16 -8 13 -22 13 -30
-1z"/>
<path d="M5645 9560 c-3 -5 -1 -10 4 -10 6 0 11 5 11 10 0 6 -2 10 -4 10 -3 0
-8 -4 -11 -10z"/>
<path d="M6843 9563 c-31 -12 0 -59 31 -47 10 4 16 15 14 28 -3 21 -22 29 -45
19z"/>
<path d="M10738 9553 c6 -2 18 -2 25 0 6 3 1 5 -13 5 -14 0 -19 -2 -12 -5z"/>
<path d="M8845 9520 c3 -5 12 -10 20 -10 8 0 17 5 20 10 4 6 -5 10 -20 10 -15
0 -24 -4 -20 -10z"/>
<path d="M1233 9498 c-38 -49 -17 -71 46 -51 57 19 54 17 46 42 -5 16 -15 21
-44 21 -21 0 -43 -6 -48 -12z"/>
<path d="M2690 9486 c0 -8 -6 -16 -12 -19 -7 -2 -9 -8 -5 -13 5 -5 15 -1 23
10 16 23 18 36 4 36 -5 0 -10 -6 -10 -14z"/>
<path d="M5025 9480 c-3 -5 -1 -10 4 -10 6 0 11 5 11 10 0 6 -2 10 -4 10 -3 0
-8 -4 -11 -10z"/>
<path d="M2052 9450 c7 -11 16 -20 20 -20 5 0 8 9 8 20 0 13 -7 20 -20 20 -18
0 -19 -2 -8 -20z"/>
<path d="M7230 9450 c0 -11 5 -20 10 -20 6 0 10 9 10 20 0 11 -4 20 -10 20 -5
0 -10 -9 -10 -20z"/>
<path d="M7372 9419 c2 -7 10 -15 17 -17 8 -3 12 1 9 9 -2 7 -10 15 -17 17 -8
3 -12 -1 -9 -9z"/>
<path d="M2465 9389 c-18 -33 -15 -45 8 -36 15 6 29 67 16 67 -5 0 -16 -14
-24 -31z"/>
<path d="M1135 9390 c-3 -5 1 -10 9 -10 9 0 16 5 16 10 0 6 -4 10 -9 10 -6 0
-13 -4 -16 -10z"/>
<path d="M5225 9390 c-33 -4 -103 -13 -155 -19 -471 -57 -949 -217 -1400 -467
-192 -107 -493 -323 -639 -459 -187 -173 -349 -344 -462 -485 -119 -148 -291
-405 -362 -540 -89 -171 -99 -181 -112 -117 -39 183 -161 380 -288 465 -54 36
-56 20 -6 -36 49 -54 83 -118 125 -237 28 -78 29 -86 32 -319 3 -187 0 -261
-12 -336 -24 -140 -90 -395 -141 -547 -14 -39 -25 -78 -25 -87 0 -9 -11 -44
-25 -78 -28 -74 -131 -402 -168 -538 -32 -116 -44 -244 -28 -292 8 -24 24 -42
52 -57 53 -30 89 -23 89 18 0 40 11 91 20 91 4 0 10 -23 13 -52 4 -28 10 -55
14 -59 5 -4 24 4 45 17 l36 23 4 258 4 258 57 170 c31 94 64 195 73 225 9 30
20 64 25 75 10 24 46 157 65 244 8 35 16 66 18 70 2 3 10 54 16 111 7 58 16
110 20 115 4 6 10 64 13 129 6 110 9 125 44 200 33 70 125 243 188 355 24 42
140 216 167 251 11 14 45 59 76 101 80 108 276 332 358 409 38 36 125 113 194
172 111 95 160 134 250 195 14 10 43 31 65 48 22 17 74 51 115 75 41 24 82 50
91 57 17 14 162 93 218 119 18 8 81 37 138 65 58 27 110 49 117 49 6 0 20 7
30 15 11 8 29 15 41 15 11 0 29 6 40 13 20 14 94 42 150 57 17 4 75 22 130 38
99 30 202 56 260 66 17 3 73 14 125 25 204 42 330 51 681 51 264 0 346 -3 389
-15 30 -8 80 -15 111 -15 30 0 95 -9 145 -21 49 -11 112 -25 139 -29 71 -13
140 -31 345 -93 138 -41 269 -93 425 -166 58 -28 109 -51 113 -51 4 0 18 -9
32 -20 14 -11 30 -20 37 -20 15 0 79 -38 268 -158 89 -57 121 -79 244 -172
175 -131 219 -171 441 -395 135 -136 179 -186 271 -310 16 -22 50 -67 75 -100
182 -241 413 -695 506 -995 11 -36 28 -90 38 -120 10 -30 21 -66 24 -80 3 -17
20 -33 48 -48 52 -27 72 -28 65 -4 -3 9 -19 67 -35 127 -33 119 -61 199 -140
397 -282 703 -795 1325 -1443 1751 -153 100 -463 270 -584 319 -104 43 -309
117 -385 141 -201 61 -555 137 -640 137 -26 0 -69 7 -96 15 -40 12 -113 15
-379 14 -181 -1 -357 -5 -390 -9z"/>
<path d="M6761 9387 c-14 -17 -4 -27 27 -27 18 0 23 4 18 16 -3 9 -6 18 -6 20
0 10 -28 3 -39 -9z"/>
<path d="M1833 9363 c-7 -2 -13 -11 -13 -20 0 -20 34 -12 38 10 3 17 -3 20
-25 10z"/>
<path d="M3432 9332 c-18 -20 -30 -42 -27 -50 3 -8 0 -21 -6 -29 -9 -10 -9
-17 -1 -25 16 -16 69 8 76 35 8 31 7 95 -1 100 -5 3 -23 -12 -41 -31z"/>
<path d="M3926 9317 c-14 -24 -26 -46 -26 -50 0 -3 15 -1 33 4 82 23 106 43
70 56 -10 3 -25 12 -35 20 -15 13 -19 10 -42 -30z"/>
<path d="M7350 9350 c-11 -7 -12 -12 -4 -20 8 -8 13 -6 17 9 3 12 4 21 4 21
-1 0 -9 -5 -17 -10z"/>
<path d="M1970 9310 c0 -5 5 -10 10 -10 6 0 10 5 10 10 0 6 -4 10 -10 10 -5 0
-10 -4 -10 -10z"/>
<path d="M360 9280 c0 -5 5 -10 10 -10 6 0 10 5 10 10 0 6 -4 10 -10 10 -5 0
-10 -4 -10 -10z"/>
<path d="M7031 9247 c-13 -16 -5 -27 21 -27 11 0 18 7 18 20 0 23 -22 27 -39
7z"/>
<path d="M2275 9240 c-3 -5 3 -10 14 -10 11 0 23 5 26 10 3 6 -3 10 -14 10
-11 0 -23 -4 -26 -10z"/>
<path d="M4080 9240 c0 -5 5 -10 11 -10 5 0 7 5 4 10 -3 6 -8 10 -11 10 -2 0
-4 -4 -4 -10z"/>
<path d="M9051 9214 c0 -11 3 -14 6 -6 3 7 2 16 -1 19 -3 4 -6 -2 -5 -13z"/>
<path d="M1205 9211 c-6 -10 25 -31 44 -31 17 0 13 27 -5 34 -22 8 -32 8 -39
-3z"/>
<path d="M8960 9206 c0 -9 30 -14 35 -6 4 6 -3 10 -14 10 -12 0 -21 -2 -21 -4z"/>
<path d="M9998 9203 c6 -2 18 -2 25 0 6 3 1 5 -13 5 -14 0 -19 -2 -12 -5z"/>
<path d="M2210 9185 c0 -9 9 -15 25 -15 16 0 25 6 25 15 0 9 -9 15 -25 15 -16
0 -25 -6 -25 -15z"/>
<path d="M10375 9160 c3 -5 8 -10 11 -10 2 0 4 5 4 10 0 6 -5 10 -11 10 -5 0
-7 -4 -4 -10z"/>
<path d="M3124 9145 c-9 -22 1 -29 15 -11 8 10 9 16 1 21 -5 3 -13 -1 -16 -10z"/>
<path d="M5489 9156 c-4 -4 -47 -9 -97 -11 -50 -3 -110 -9 -134 -15 -24 -5
-72 -10 -108 -10 -74 0 -317 -45 -460 -84 -176 -48 -246 -69 -255 -76 -5 -4
-28 -13 -50 -20 -105 -31 -196 -70 -390 -165 -370 -182 -675 -401 -953 -685
-459 -467 -747 -964 -922 -1590 -45 -159 -49 -176 -55 -215 -3 -22 -12 -78
-20 -125 -34 -200 -45 -332 -45 -515 l0 -190 39 55 c109 153 303 571 378 815
8 28 18 55 22 60 20 27 55 179 71 305 51 396 94 581 193 814 69 164 137 256
245 334 60 42 72 47 132 50 36 2 84 -1 106 -7 111 -30 200 -189 143 -258 -19
-22 -49 -15 -92 22 -22 19 -44 35 -49 35 -4 0 -25 -17 -47 -39 -33 -33 -63
-85 -112 -196 -10 -22 -46 -174 -59 -250 -5 -27 -14 -75 -20 -105 -5 -30 -15
-104 -20 -163 -6 -59 -16 -120 -21 -135 -6 -15 -15 -94 -19 -177 -5 -82 -14
-182 -19 -221 -16 -112 -25 -633 -13 -759 18 -179 44 -257 97 -285 23 -12 28
-11 51 11 54 50 287 388 309 449 8 19 29 66 49 104 37 74 37 86 -6 114 -73 49
-138 126 -173 207 -25 57 -27 226 -2 277 28 60 89 105 150 112 88 10 167 -6
202 -40 53 -50 72 -93 74 -164 3 -101 4 -104 64 -97 28 4 58 13 66 22 13 13
12 21 -14 76 -32 66 -75 111 -130 134 -19 7 -35 21 -35 30 0 36 141 261 245
390 103 127 293 311 405 394 52 38 106 78 120 89 48 37 216 125 370 193 25 11
54 25 65 31 11 6 51 20 90 30 38 11 95 26 125 34 229 62 267 66 595 68 305 1
312 1 440 -27 71 -16 132 -30 136 -32 3 -3 48 -15 100 -29 310 -81 673 -300
930 -563 189 -192 286 -320 398 -525 33 -61 48 -78 65 -78 12 0 27 5 33 11 7
7 59 12 140 12 118 0 132 -2 178 -25 93 -48 126 -110 126 -238 0 -89 -18 -152
-77 -277 -24 -50 -44 -94 -44 -97 0 -3 -17 -42 -39 -88 -66 -142 -71 -158 -47
-158 46 0 397 327 417 388 40 127 145 290 235 366 56 46 147 91 225 110 72 18
91 18 191 0 l37 -6 -6 38 c-3 20 -33 107 -66 193 -32 86 -66 176 -75 201 -8
25 -21 52 -29 61 -7 8 -13 23 -13 31 0 9 -6 21 -14 27 -8 7 -17 24 -21 39 -4
15 -11 32 -16 39 -6 6 -24 37 -41 70 -55 105 -63 119 -127 219 -95 150 -145
219 -234 328 -171 207 -237 277 -398 422 -97 88 -115 102 -228 189 -103 79
-142 106 -319 217 -85 54 -317 176 -392 207 -19 8 -63 27 -97 42 -109 49 -345
124 -518 165 -33 8 -76 19 -95 25 -73 21 -247 49 -302 49 -31 0 -90 6 -131 14
-81 16 -398 32 -408 22z m79 -581 l3 -40 -92 -3 c-51 -1 -110 -7 -131 -13 -35
-9 -39 -13 -36 -37 3 -27 3 -27 75 -24 100 5 115 -1 111 -46 l-3 -37 -82 -3
c-77 -3 -81 -4 -87 -28 -4 -14 -4 -35 0 -46 6 -20 11 -20 123 -15 64 3 125 7
136 9 17 3 20 -3 20 -36 l0 -39 -100 -4 c-54 -3 -107 -9 -116 -14 -24 -12
-126 -11 -150 1 -14 8 -17 15 -10 28 5 10 5 45 0 87 -5 39 -12 116 -15 171
l-7 102 109 6 c60 4 134 10 164 15 81 13 85 11 88 -34z m400 18 c143 -11 212
-53 212 -127 0 -51 -28 -99 -69 -116 -38 -15 -39 -33 -7 -91 13 -24 27 -54 31
-66 6 -21 3 -23 -28 -23 -45 0 -69 22 -96 88 -33 80 -56 102 -107 102 l-43 0
-7 -61 c-10 -85 -44 -112 -93 -71 l-21 17 19 95 c10 52 22 131 26 175 4 44 12
84 19 88 6 4 28 5 49 2 20 -3 72 -8 115 -12z m-998 -95 c9 -39 38 -140 77
-272 16 -56 12 -64 -40 -73 -32 -5 -47 2 -151 72 -118 79 -156 91 -141 42 3
-12 13 -47 22 -77 8 -30 20 -61 26 -68 14 -18 -9 -40 -51 -48 -29 -6 -33 -4
-46 27 -8 19 -26 77 -41 129 -14 52 -32 117 -40 144 -19 62 -19 61 10 74 39
18 76 14 100 -8 41 -38 210 -139 218 -131 7 7 -23 124 -48 184 -6 13 1 20 26
32 56 24 67 20 79 -27z m1673 -146 c4 -48 13 -141 21 -206 8 -66 12 -124 9
-129 -7 -12 -70 -2 -89 14 -8 6 -14 28 -14 49 0 45 -9 53 -91 85 -73 29 -92
26 -109 -16 -12 -29 -15 -30 -54 -23 -40 6 -56 18 -56 40 0 6 66 76 147 156
l146 146 42 -15 42 -14 6 -87z m-2292 -48 c20 -24 1 -44 -78 -85 -38 -19 -84
-45 -101 -58 -27 -19 -30 -25 -21 -42 17 -32 37 -33 88 -5 53 28 90 33 109 14
22 -22 13 -33 -52 -65 -74 -37 -90 -58 -73 -94 22 -42 47 -37 192 38 17 9 38
24 48 35 24 24 26 23 42 -14 12 -29 11 -35 -3 -51 -14 -16 -193 -107 -209
-107 -4 0 -14 -7 -23 -15 -10 -9 -32 -20 -49 -25 -29 -8 -33 -7 -42 18 -15 41
-97 198 -129 250 -26 42 -27 47 -13 68 8 12 26 27 41 33 29 12 84 42 104 58 7
6 24 14 38 18 14 4 36 16 49 26 29 23 64 24 82 3z m2763 -90 c62 -31 86 -53
139 -123 l40 -54 -23 -19 c-31 -25 -39 -21 -78 38 -41 60 -98 93 -165 94 -43
0 -53 -4 -83 -34 -31 -31 -34 -39 -34 -93 0 -54 3 -62 33 -90 51 -49 67 -54
200 -62 4 -1 7 -16 7 -35 0 -26 -5 -36 -21 -41 -34 -11 -117 5 -167 33 -155
84 -195 221 -100 337 64 77 158 96 252 49z m-3283 -215 c30 -30 20 -50 -35
-66 -120 -35 -180 -137 -130 -221 28 -48 75 -67 131 -53 58 15 123 66 123 98
0 32 -13 29 -54 -13 l-35 -36 -26 27 c-24 27 -34 65 -17 65 5 0 39 25 77 55
38 30 74 55 80 55 9 0 55 -56 88 -107 20 -31 -70 -150 -155 -204 -45 -29 -59
-33 -117 -33 -80 0 -120 19 -161 76 -93 128 -39 266 136 353 61 30 69 30 95 4z
m3697 -109 c25 -33 28 -50 10 -50 -7 -1 -31 -24 -53 -52 -22 -28 -62 -77 -88
-107 -27 -31 -55 -68 -63 -83 -8 -16 -18 -28 -22 -28 -5 0 -25 15 -45 34 l-37
34 52 55 c29 30 85 93 123 141 39 47 77 86 86 86 8 0 25 -13 37 -30z m270
-269 c125 -65 180 -218 114 -318 -36 -54 -65 -76 -128 -97 -58 -19 -90 -15
-144 20 -84 53 -140 137 -140 209 0 72 68 165 142 195 40 15 116 11 156 -9z
m373 -475 c21 -42 21 -47 6 -78 -26 -56 -89 -249 -83 -255 6 -7 142 62 169 85
16 14 20 14 44 -10 33 -34 26 -68 -19 -89 -61 -28 -233 -120 -242 -130 -24
-22 -56 -9 -76 32 -19 37 -20 42 -6 58 24 27 105 271 90 271 -4 0 -53 -25
-110 -55 l-103 -55 -13 42 c-15 51 -13 52 160 144 70 37 129 71 130 76 9 21
33 4 53 -36z"/>
<path d="M5877 8513 c-4 -3 -7 -18 -7 -33 0 -34 27 -47 113 -56 52 -5 66 -3
80 11 15 15 16 47 2 63 -15 17 -174 29 -188 15z"/>
<path d="M6502 8297 c-12 -13 -22 -30 -22 -39 0 -17 44 -33 60 -23 17 11 9 85
-9 85 -4 0 -17 -10 -29 -23z"/>
<path d="M7684 7543 c-12 -2 -36 -16 -53 -31 -62 -52 -52 -164 19 -205 85 -50
210 18 210 114 -1 89 -76 142 -176 122z"/>
<path d="M10209 9148 c-2 -18 -1 -37 7 -88 11 -75 41 -93 62 -38 14 38 11 43
-17 28 -20 -10 -21 -8 -20 42 0 29 3 48 5 41 7 -16 34 -5 34 13 0 18 -69 19
-71 2z"/>
<path d="M7285 9140 c-3 -6 5 -10 19 -10 14 0 28 5 31 10 3 6 -5 10 -19 10
-14 0 -28 -4 -31 -10z"/>
<path d="M8505 9140 c-3 -5 3 -10 14 -10 12 0 21 5 21 10 0 6 -6 10 -14 10 -8
0 -18 -4 -21 -10z"/>
<path d="M3404 9115 c-18 -15 -18 -15 5 -13 14 2 26 9 29 16 5 17 -10 15 -34
-3z"/>
<path d="M10260 9099 c0 -11 5 -17 10 -14 6 3 10 13 10 21 0 8 -4 14 -10 14
-5 0 -10 -9 -10 -21z"/>
<path d="M775 9101 c-19 -8 -19 -8 0 -19 15 -7 25 -7 38 3 9 6 17 15 17 19 0
8 -30 7 -55 -3z"/>
<path d="M2814 9096 c-4 -10 -2 -22 4 -28 8 -8 13 -7 18 6 4 10 2 22 -4 28 -8
8 -13 7 -18 -6z"/>
<path d="M8213 9070 c-3 -11 -10 -20 -16 -20 -8 0 -8 -3 0 -11 15 -15 67 10
71 34 5 26 -48 24 -55 -3z"/>
<path d="M1085 9060 c3 -5 10 -10 16 -10 5 0 9 5 9 10 0 6 -7 10 -16 10 -8 0
-12 -4 -9 -10z"/>
<path d="M3263 9044 c-15 -15 -17 -34 -4 -34 8 0 24 41 18 46 -1 1 -8 -4 -14
-12z"/>
<path d="M2206 9023 c-3 -4 -6 -14 -6 -24 0 -12 10 -18 38 -21 44 -6 44 -6 36
15 -6 17 -58 39 -68 30z"/>
<path d="M3060 9020 c0 -5 9 -10 20 -10 11 0 20 5 20 10 0 6 -9 10 -20 10 -11
0 -20 -4 -20 -10z"/>
<path d="M8931 8994 c0 -11 3 -14 6 -6 3 7 2 16 -1 19 -3 4 -6 -2 -5 -13z"/>
<path d="M9948 9003 c6 -2 18 -2 25 0 6 3 1 5 -13 5 -14 0 -19 -2 -12 -5z"/>
<path d="M10450 8974 c0 -9 5 -14 12 -12 18 6 21 28 4 28 -9 0 -16 -7 -16 -16z"/>
<path d="M660 8959 c0 -17 4 -20 23 -15 12 3 26 6 31 6 5 0 3 7 -4 15 -19 23
-50 19 -50 -6z"/>
<path d="M8731 8953 c-1 -18 4 -33 9 -33 12 0 12 17 0 45 -7 17 -9 15 -9 -12z"/>
<path d="M508 8953 c7 -3 16 -2 19 1 4 3 -2 6 -13 5 -11 0 -14 -3 -6 -6z"/>
<path d="M80 8911 c0 -12 29 -23 41 -15 5 3 7 10 4 15 -8 12 -45 12 -45 0z"/>
<path d="M695 8899 c-4 -6 -5 -13 -2 -16 7 -7 27 6 27 18 0 12 -17 12 -25 -2z"/>
<path d="M9070 8900 c0 -5 5 -10 10 -10 6 0 10 5 10 10 0 6 -4 10 -10 10 -5 0
-10 -4 -10 -10z"/>
<path d="M10050 8839 c0 -18 2 -19 15 -9 8 7 15 16 15 21 0 5 -7 9 -15 9 -9 0
-15 -9 -15 -21z"/>
<path d="M100 8815 c7 -9 15 -13 17 -11 7 7 -7 26 -19 26 -6 0 -6 -6 2 -15z"/>
<path d="M1598 8798 c9 -9 15 -9 24 0 9 9 7 12 -12 12 -19 0 -21 -3 -12 -12z"/>
<path d="M373 8743 c-7 -18 25 -53 47 -53 23 0 43 24 38 47 -4 23 -77 28 -85
6z"/>
<path d="M2736 8731 c-4 -5 -2 -12 3 -15 5 -4 12 -2 15 3 4 5 2 12 -3 15 -5 4
-12 2 -15 -3z"/>
<path d="M3188 8733 c6 -2 18 -2 25 0 6 3 1 5 -13 5 -14 0 -19 -2 -12 -5z"/>
<path d="M180 8696 c0 -31 52 -31 64 -1 4 11 -3 15 -29 15 -24 0 -35 -5 -35
-14z"/>
<path d="M2395 8700 c-3 -5 1 -10 10 -10 9 0 13 5 10 10 -3 6 -8 10 -10 10 -2
0 -7 -4 -10 -10z"/>
<path d="M1934 8622 c-6 -4 -11 -24 -11 -45 -1 -37 0 -39 25 -32 15 3 41 9 57
12 17 3 36 14 43 24 7 10 25 20 40 22 15 2 -1 5 -35 6 -35 0 -63 6 -63 11 0
12 -40 13 -56 2z"/>
<path d="M9042 8548 c6 -18 28 -21 28 -4 0 9 -7 16 -16 16 -9 0 -14 -5 -12
-12z"/>
<path d="M8646 8524 c-20 -20 -20 -27 2 -54 17 -21 21 -22 48 -9 34 17 41 40
19 63 -21 20 -49 21 -69 0z"/>
<path d="M8905 8530 c-3 -5 3 -10 15 -10 12 0 18 5 15 10 -3 6 -10 10 -15 10
-5 0 -12 -4 -15 -10z"/>
<path d="M1784 8502 c9 -15 48 -23 43 -9 -2 7 -14 14 -26 15 -13 2 -21 -1 -17
-6z"/>
<path d="M10746 8455 c-3 -13 -3 -30 0 -39 4 -10 0 -18 -10 -22 -37 -14 5 -41
44 -29 16 5 20 15 20 49 0 35 -4 45 -24 54 -21 9 -25 8 -30 -13z"/>
<path d="M10676 8461 c-5 -7 -14 -10 -22 -7 -18 7 -19 -24 -1 -46 6 -9 22 -19
35 -23 19 -6 22 -3 22 22 0 36 -23 72 -34 54z"/>
<path d="M9210 8450 c0 -5 5 -10 10 -10 6 0 10 5 10 10 0 6 -4 10 -10 10 -5 0
-10 -4 -10 -10z"/>
<path d="M780 8410 c13 -23 20 -26 20 -6 0 8 -7 16 -15 20 -13 4 -14 2 -5 -14z"/>
<path d="M8550 8400 c0 -5 4 -10 9 -10 6 0 13 5 16 10 3 6 -1 10 -9 10 -9 0
-16 -4 -16 -10z"/>
<path d="M1180 8390 c-12 -8 -11 -10 8 -10 12 0 22 5 22 10 0 13 -11 13 -30 0z"/>
<path d="M2805 8390 c-8 -13 15 -24 27 -12 6 6 4 11 -6 15 -8 3 -18 2 -21 -3z"/>
<path d="M2230 8338 c6 -63 20 -70 86 -38 32 14 44 26 42 38 -4 18 -12 18 -64
7 -30 -7 -31 -6 -27 19 5 22 2 26 -19 26 -22 0 -23 -2 -18 -52z"/>
<path d="M9248 8383 c7 -3 16 -2 19 1 4 3 -2 6 -13 5 -11 0 -14 -3 -6 -6z"/>
<path d="M5 8309 c-10 -15 1 -23 20 -15 9 3 13 10 10 16 -8 13 -22 13 -30 -1z"/>
<path d="M1632 8300 c0 -14 2 -19 5 -12 2 6 2 18 0 25 -3 6 -5 1 -5 -13z"/>
<path d="M9264 8295 c-10 -25 4 -45 31 -45 16 0 25 6 25 15 0 8 5 15 10 15 6
0 10 7 10 15 0 11 -11 15 -35 15 -22 0 -38 -6 -41 -15z"/>
<path d="M9730 8285 c-10 -12 -7 -14 23 -13 25 1 34 5 30 15 -7 17 -38 17 -53
-2z"/>
<path d="M9056 8265 c4 -8 10 -12 15 -9 11 6 2 24 -11 24 -5 0 -7 -7 -4 -15z"/>
<path d="M9850 8270 c0 -5 7 -10 15 -10 8 0 15 5 15 10 0 6 -7 10 -15 10 -8 0
-15 -4 -15 -10z"/>
<path d="M1179 8227 c7 -9 24 -16 37 -15 28 3 33 18 5 18 -11 0 -28 3 -38 7
-16 6 -16 5 -4 -10z"/>
<path d="M1319 8197 c-13 -28 4 -77 26 -77 8 0 20 11 26 24 9 19 7 29 -6 50
-21 32 -32 33 -46 3z"/>
<path d="M2480 8170 c0 -5 18 -10 41 -10 24 0 38 4 34 10 -3 6 -22 10 -41 10
-19 0 -34 -4 -34 -10z"/>
<path d="M1717 8113 c-4 -3 -7 -12 -7 -20 0 -17 26 -17 33 1 8 21 -11 35 -26
19z"/>
<path d="M2380 8090 c0 -5 7 -10 16 -10 8 0 12 5 9 10 -3 6 -10 10 -16 10 -5
0 -9 -4 -9 -10z"/>
<path d="M10349 7998 c-21 -66 -9 -106 29 -94 25 8 34 52 21 100 -13 48 -33
46 -50 -6z"/>
<path d="M1950 7991 c0 -21 7 -34 22 -42 18 -10 24 -8 40 11 29 36 26 41 -34
54 -26 6 -28 4 -28 -23z"/>
<path d="M496 7888 c-8 -12 -14 -24 -12 -27 2 -3 6 -14 9 -23 5 -15 10 -16 32
-6 28 13 30 17 13 53 -14 31 -22 31 -42 3z"/>
<path d="M10690 7890 c0 -5 4 -10 9 -10 6 0 13 5 16 10 3 6 -1 10 -9 10 -9 0
-16 -4 -16 -10z"/>
<path d="M1330 7827 c-105 -28 -206 -117 -262 -230 -58 -116 -71 -176 -75
-328 -4 -123 -1 -146 22 -229 38 -135 85 -223 130 -244 33 -16 38 -16 60 -2
14 9 27 29 31 44 3 15 7 32 8 37 4 13 -14 64 -51 145 -55 122 -63 159 -63 292
0 103 4 138 26 213 59 205 130 279 269 279 59 0 80 -5 139 -33 87 -43 148
-103 187 -184 27 -57 29 -71 29 -176 0 -140 -24 -245 -114 -503 -167 -479
-296 -941 -323 -1158 -4 -36 -8 -155 -7 -265 0 -182 2 -206 23 -265 51 -146
139 -210 288 -210 69 0 88 4 140 30 176 88 357 343 502 707 24 59 6 56 -24 -3
-140 -285 -312 -506 -445 -572 -141 -71 -293 -21 -332 109 -27 91 18 328 123
644 33 99 90 277 126 395 36 118 69 229 74 245 16 50 67 315 78 405 41 323
-25 615 -167 741 -50 44 -137 89 -172 89 -11 0 -31 7 -45 16 -31 20 -119 26
-175 11z"/>
<path d="M3065 7803 c-49 -20 -154 -101 -187 -145 -78 -106 -178 -353 -222
-553 -8 -38 -23 -104 -32 -145 -9 -41 -23 -138 -31 -215 -7 -77 -17 -178 -22
-225 -12 -111 -13 -608 -1 -730 27 -292 84 -475 180 -577 157 -167 322 -118
447 130 44 87 143 311 143 323 0 12 -19 1 -24 -13 -14 -39 -215 -319 -247
-345 -24 -20 -52 -30 -87 -35 -45 -5 -56 -3 -85 20 -43 32 -71 92 -86 182 -7
39 -17 86 -22 105 -17 60 -23 423 -9 565 7 72 14 171 16 220 2 50 8 128 13
175 6 47 15 137 21 200 21 226 82 583 121 710 49 158 125 267 211 301 23 9 44
21 45 26 2 6 -15 16 -39 22 -24 7 -47 14 -53 16 -5 2 -28 -3 -50 -12z"/>
<path d="M9645 7730 c3 -5 10 -10 16 -10 5 0 9 5 9 10 0 6 -7 10 -16 10 -8 0
-12 -4 -9 -10z"/>
<path d="M181 7718 c0 -20 58 -61 75 -54 23 9 12 29 -27 48 -41 21 -49 22 -48
6z"/>
<path d="M1345 7701 c-40 -24 -78 -70 -94 -112 -7 -19 -19 -50 -28 -69 -24
-56 -37 -211 -25 -306 9 -65 21 -103 61 -185 46 -94 51 -109 51 -173 0 -59 -4
-74 -26 -103 -34 -44 -78 -66 -119 -59 -46 9 -109 67 -133 124 -12 27 -29 55
-38 63 -35 29 -7 -81 52 -198 62 -126 98 -164 178 -188 108 -32 192 25 231
158 15 53 15 65 2 131 -8 40 -32 106 -52 147 -65 129 -77 219 -50 348 20 94
64 180 109 210 44 29 92 25 170 -13 75 -37 80 -35 71 21 -10 66 -26 94 -86
146 -83 72 -208 99 -274 58z"/>
<path d="M9510 7680 c-12 -8 -10 -10 8 -10 13 0 20 4 17 10 -7 12 -6 12 -25 0z"/>
<path d="M4997 7604 c-52 -27 -118 -89 -151 -144 -51 -82 -112 -269 -179 -550
-20 -80 -45 -185 -57 -235 -13 -49 -26 -124 -30 -166 -4 -42 -11 -89 -14 -105
-22 -98 -42 -582 -27 -649 6 -27 20 -93 30 -146 23 -116 60 -198 119 -262 65
-68 98 -86 180 -93 59 -6 82 -3 141 16 90 30 187 102 263 196 47 59 66 74 113
92 31 12 83 43 116 68 57 44 169 168 169 187 0 5 -17 -5 -39 -22 -21 -17 -49
-35 -62 -41 -13 -6 -35 -17 -49 -25 -14 -8 -38 -15 -54 -15 -26 0 -28 3 -23
28 4 15 29 95 58 177 50 144 52 155 56 282 4 109 2 139 -12 177 -25 64 -97
129 -169 152 l-58 18 -74 -38 c-61 -31 -81 -49 -122 -104 -96 -130 -143 -260
-145 -404 -3 -170 84 -352 197 -413 75 -41 52 -78 -97 -155 -68 -34 -87 -40
-142 -40 -52 0 -71 5 -102 25 -86 59 -114 204 -94 482 14 184 38 268 141 498
40 88 80 181 90 206 11 25 28 64 39 85 49 96 132 308 129 333 -2 21 -10 12
-41 -54 -82 -172 -212 -364 -232 -343 -7 6 11 173 25 233 5 23 14 81 20 130
27 218 50 329 93 454 27 77 79 151 106 151 24 0 58 -38 75 -85 l15 -40 0 46
c1 50 -16 72 -76 103 -43 22 -69 20 -126 -10z m428 -1228 c50 -50 68 -197 45
-361 -15 -100 -62 -233 -99 -277 -26 -32 -70 -23 -112 23 -57 62 -79 130 -79
245 0 161 54 307 134 366 48 34 79 36 111 4z"/>
<path d="M5348 6300 c-74 -57 -126 -307 -84 -403 40 -93 72 -88 103 15 55 187
63 279 31 360 -19 50 -21 51 -50 28z"/>
<path d="M5260 7600 c0 -11 7 -37 15 -57 20 -48 20 -244 -1 -343 -31 -151 -89
-314 -203 -569 -28 -63 -60 -130 -70 -150 -39 -73 -133 -298 -148 -351 -16
-58 -25 -101 -42 -211 -14 -82 -14 -259 -1 -308 5 -20 12 -48 15 -63 9 -46 51
-80 93 -76 24 2 38 8 39 18 9 73 15 89 28 83 8 -3 15 -11 15 -17 0 -7 11 -22
23 -35 20 -18 28 -20 50 -12 15 6 27 14 27 19 0 4 -24 37 -54 72 -110 130
-143 242 -133 450 9 160 67 309 170 430 39 46 108 99 129 100 44 0 123 165
183 383 59 216 56 429 -7 534 -33 54 -99 123 -118 123 -6 0 -10 -9 -10 -20z"/>
<path d="M9383 7524 c-6 -16 23 -54 42 -54 7 0 18 6 24 13 8 11 7 18 -7 29
-28 24 -52 29 -59 12z"/>
<path d="M0 7450 c0 -19 3 -21 12 -12 9 9 9 15 0 24 -9 9 -12 7 -12 -12z"/>
<path d="M5085 7443 c-4 -15 -10 -38 -15 -50 -19 -47 -53 -191 -66 -283 -8
-52 -17 -109 -20 -126 -3 -18 -2 -34 4 -38 13 -8 96 162 113 234 4 19 15 64
24 99 9 35 15 91 13 125 -3 54 -5 61 -25 64 -17 3 -24 -3 -28 -25z"/>
<path d="M705 7350 c-3 -5 1 -10 10 -10 9 0 13 5 10 10 -3 6 -8 10 -10 10 -2
0 -7 -4 -10 -10z"/>
<path d="M5813 7303 c-22 -8 -14 -39 14 -52 32 -15 46 -3 37 33 -6 25 -22 31
-51 19z"/>
<path d="M6048 7193 c7 -3 16 -2 19 1 4 3 -2 6 -13 5 -11 0 -14 -3 -6 -6z"/>
<path d="M205 7169 c-9 -14 24 -49 47 -49 16 0 17 3 7 23 -19 35 -42 46 -54
26z"/>
<path d="M4425 7160 c-3 -5 4 -14 15 -20 16 -8 20 -8 20 4 0 16 -27 29 -35 16z"/>
<path d="M4070 7129 c0 -5 5 -7 10 -4 6 3 10 8 10 11 0 2 -4 4 -10 4 -5 0 -10
-5 -10 -11z"/>
<path d="M9704 7123 c-12 -2 -26 -15 -32 -29 -10 -22 -9 -24 11 -24 28 0 67
26 67 46 0 14 -6 15 -46 7z"/>
<path d="M237 7074 c-11 -11 -9 -21 9 -38 17 -18 34 -21 34 -7 0 16 -35 53
-43 45z"/>
<path d="M6480 7064 c0 -2 12 -14 27 -28 25 -23 26 -26 11 -43 -9 -10 -20 -30
-23 -45 -7 -26 -5 -28 24 -28 37 0 52 27 54 100 l2 44 -47 2 c-27 1 -48 0 -48
-2z"/>
<path d="M1595 7017 c-4 -10 -5 -21 -1 -24 10 -10 18 4 13 24 -4 17 -4 17 -12
0z"/>
<path d="M292 7002 c4 -21 38 -29 38 -9 0 8 -9 17 -21 20 -15 4 -19 1 -17 -11z"/>
<path d="M3922 6986 c-18 -20 -32 -40 -32 -44 0 -4 75 -7 167 -7 l167 0 15 27
c26 46 8 53 -148 56 l-137 4 -32 -36z"/>
<path d="M500 6989 c0 -5 5 -7 10 -4 6 3 10 8 10 11 0 2 -4 4 -10 4 -5 0 -10
-5 -10 -11z"/>
<path d="M10782 6988 c-15 -15 -16 -38 -2 -38 12 0 23 25 18 40 -2 7 -7 7 -16
-2z"/>
<path d="M10630 6971 c8 -5 33 -5 55 -1 40 8 40 8 -15 9 -35 0 -50 -3 -40 -8z"/>
<path d="M10290 6950 c0 -5 7 -10 15 -10 8 0 15 5 15 10 0 6 -7 10 -15 10 -8
0 -15 -4 -15 -10z"/>
<path d="M5482 6941 c-5 -3 -11 -15 -14 -26 -4 -17 0 -21 19 -23 30 -2 63 14
63 32 0 14 -53 27 -68 17z"/>
<path d="M267 6926 c-3 -8 3 -26 14 -39 10 -14 19 -32 19 -41 0 -26 56 -21 75
7 15 21 15 22 -12 25 -15 2 -42 17 -59 33 -25 24 -33 27 -37 15z"/>
<path d="M5918 6903 c-51 -15 -71 -41 -38 -50 11 -3 20 -9 20 -14 0 -20 41 -8
52 16 6 14 15 25 20 25 10 0 11 27 1 33 -5 2 -29 -2 -55 -10z"/>
<path d="M10447 6895 c-4 -25 4 -40 17 -28 9 9 7 41 -3 47 -5 3 -11 -6 -14
-19z"/>
<path d="M9295 6890 c-8 -13 15 -13 35 0 12 8 11 10 -7 10 -12 0 -25 -4 -28
-10z"/>
<path d="M9586 6868 c-19 -36 -20 -48 -6 -48 6 0 10 7 10 15 0 9 11 20 25 25
30 11 31 16 6 30 -17 8 -22 5 -35 -22z"/>
<path d="M7125 6870 c-3 -5 1 -10 9 -10 9 0 16 5 16 10 0 6 -4 10 -9 10 -6 0
-13 -4 -16 -10z"/>
<path d="M3890 6850 c0 -5 7 -10 15 -10 8 0 15 5 15 10 0 6 -7 10 -15 10 -8 0
-15 -4 -15 -10z"/>
<path d="M6409 6850 c-9 -5 -20 -29 -23 -54 -5 -31 -14 -49 -31 -60 -34 -22
-66 -20 -72 4 -5 18 -12 21 -56 18 -58 -3 -76 -25 -25 -30 29 -3 35 -8 46 -44
14 -46 41 -61 73 -41 14 9 22 8 36 -6 26 -23 93 -49 109 -43 8 3 14 18 14 34
0 26 -6 32 -52 51 -46 19 -50 24 -35 32 10 6 26 8 35 4 9 -3 14 -3 10 0 -3 4
9 22 28 42 40 41 45 78 12 86 -13 2 -30 7 -38 10 -8 4 -22 2 -31 -3z m31 -90
c0 -13 -5 -18 -15 -14 -12 5 -13 10 -4 20 15 19 19 18 19 -6z"/>
<path d="M6335 6839 c-4 -6 -5 -12 -3 -14 7 -7 48 7 48 16 0 13 -37 11 -45 -2z"/>
<path d="M3977 6834 c-15 -15 -6 -32 13 -27 12 3 19 10 17 16 -4 14 -21 19
-30 11z"/>
<path d="M5540 6823 c-62 -20 -72 -43 -20 -43 19 0 33 7 40 19 16 32 13 35
-20 24z"/>
<path d="M4024 6805 c-4 -9 -19 -15 -38 -15 -41 0 -48 -7 -33 -31 14 -22 89
-26 147 -8 19 6 60 14 90 17 39 5 55 11 55 22 0 11 -10 15 -35 13 -99 -5 -123
-4 -133 6 -16 16 -47 13 -53 -4z"/>
<path d="M6040 6810 c0 -5 5 -10 10 -10 6 0 10 5 10 10 0 6 -4 10 -10 10 -5 0
-10 -4 -10 -10z"/>
<path d="M6290 6782 c0 -16 39 -44 50 -37 8 5 5 13 -9 26 -21 20 -41 25 -41
11z"/>
<path d="M10376 6766 c7 -19 48 -22 42 -3 -3 6 -14 13 -26 15 -16 3 -20 -1
-16 -12z"/>
<path d="M15 6748 c-3 -7 -2 -25 3 -41 7 -26 8 -27 30 -12 12 9 22 27 22 41 0
19 -5 24 -25 24 -14 0 -28 -6 -30 -12z"/>
<path d="M10185 6720 c-3 -5 -1 -10 4 -10 6 0 11 5 11 10 0 6 -2 10 -4 10 -3
0 -8 -4 -11 -10z"/>
<path d="M701 6667 c-18 -18 -12 -36 14 -42 14 -3 36 -7 50 -10 33 -7 32 -32
-2 -48 -50 -21 -59 -60 -18 -79 13 -6 22 -14 20 -18 -7 -11 16 -27 50 -33 17
-4 45 -9 63 -13 40 -8 40 -1 3 42 -16 18 -40 54 -54 81 -13 26 -33 63 -43 80
-21 37 -65 58 -83 40z"/>
<path d="M4280 6670 c0 -13 11 -13 30 0 12 8 11 10 -7 10 -13 0 -23 -4 -23
-10z"/>
<path d="M5490 6670 c0 -5 5 -10 11 -10 5 0 7 5 4 10 -3 6 -8 10 -11 10 -2 0
-4 -4 -4 -10z"/>
<path d="M5658 6658 c-34 -12 -36 -28 -4 -28 35 0 56 10 56 26 0 16 -13 17
-52 2z"/>
<path d="M6160 6644 c0 -8 5 -12 10 -9 6 3 10 10 10 16 0 5 -4 9 -10 9 -5 0
-10 -7 -10 -16z"/>
<path d="M3293 6513 c-10 -16 -21 -30 -25 -33 -15 -12 -28 -64 -28 -116 0 -65
27 -139 69 -193 37 -47 173 -140 216 -148 17 -3 104 -7 195 -9 91 -2 167 -3
170 -3 3 -1 5 -103 5 -228 0 -190 3 -238 18 -288 10 -33 25 -85 34 -115 22
-78 94 -150 149 -150 40 0 89 24 79 40 -3 4 -25 8 -50 8 -56 -1 -78 17 -106
91 -63 162 14 574 134 717 54 64 77 107 77 143 0 42 -26 85 -66 112 -34 22
-62 24 -106 5 -75 -30 -268 -87 -331 -96 -146 -22 -314 22 -377 98 -51 62 -52
143 -2 168 37 18 37 24 -1 24 -29 0 -40 -6 -54 -27z"/>
<path d="M6127 6526 c-110 -41 -210 -144 -274 -283 -55 -120 -88 -220 -98
-303 -2 -17 -10 -37 -17 -45 -41 -45 -41 -45 -24 -64 11 -12 16 -37 16 -77 1
-79 34 -227 62 -272 58 -95 155 -125 247 -77 38 19 114 108 144 170 65 130 79
175 57 175 -5 0 -13 -12 -16 -26 -11 -43 -132 -210 -173 -238 -28 -20 -49 -26
-89 -26 -50 0 -53 2 -79 42 -26 38 -28 50 -32 161 -2 74 2 136 9 165 80 300
217 498 371 535 28 7 153 -47 178 -76 9 -12 29 -17 66 -17 45 0 58 5 84 29 35
33 37 44 17 92 -19 45 -45 65 -135 107 -69 32 -86 36 -176 39 -68 2 -112 -1
-138 -11z"/>
<path d="M7760 6522 c-30 -10 -68 -25 -85 -34 -39 -22 -124 -102 -161 -153
-68 -92 -174 -294 -174 -331 0 -23 4 -19 38 30 60 89 123 159 190 212 75 59
129 84 191 87 l46 2 -3 -54 c-2 -29 -14 -90 -27 -135 -37 -125 -43 -145 -64
-238 -27 -113 -37 -241 -22 -294 15 -57 66 -96 126 -96 66 0 172 60 261 148
69 68 132 150 123 158 -2 3 -42 -29 -89 -70 -83 -73 -195 -138 -255 -150 -19
-3 -37 0 -50 9 -19 15 -19 15 3 60 12 24 22 48 22 52 0 23 180 435 203 463 5
7 12 54 15 106 5 109 -7 146 -66 187 -39 28 -121 60 -150 58 -9 0 -42 -8 -72
-17z"/>
<path d="M10777 6534 c-8 -8 3 -34 14 -34 5 0 9 9 9 20 0 19 -11 26 -23 14z"/>
<path d="M10610 6516 c0 -10 18 -13 70 -13 58 0 68 2 59 13 -7 9 -33 14 -70
14 -43 0 -59 -4 -59 -14z"/>
<path d="M8763 6491 c-118 -40 -237 -158 -307 -305 -130 -272 -97 -495 87
-576 71 -32 209 -31 297 0 128 47 241 131 344 256 24 29 32 32 106 38 91 8
106 23 28 28 l-53 3 0 37 c0 50 -11 56 -25 14 -16 -48 -48 -56 -103 -26 -80
44 -116 91 -137 178 -23 97 17 224 80 257 41 21 106 19 150 -6 61 -34 90 -129
70 -224 -6 -27 -13 -72 -16 -100 l-5 -50 26 60 c23 51 27 75 29 165 1 131 -13
162 -94 202 -44 22 -70 27 -130 27 -55 1 -87 6 -115 21 -51 26 -159 27 -232 1z
m41 -207 c3 -9 6 -45 6 -80 0 -70 13 -103 64 -168 41 -51 136 -113 189 -121
93 -16 97 -35 26 -110 -59 -63 -141 -106 -253 -135 -96 -24 -133 -25 -188 -4
-59 23 -96 60 -109 109 -15 55 -4 179 21 230 11 23 20 45 20 49 0 21 80 136
130 188 58 59 83 70 94 42z"/>
<path d="M8697 6118 c-30 -47 -67 -123 -67 -138 0 -8 -7 -27 -14 -42 -28 -54
-29 -109 -3 -158 18 -35 31 -46 58 -52 57 -13 177 1 235 29 52 24 134 87 124
95 -3 2 -34 19 -70 37 -77 40 -172 128 -199 186 -28 60 -46 72 -64 43z"/>
<path d="M10140 6500 c0 -5 7 -10 15 -10 8 0 15 5 15 10 0 6 -7 10 -15 10 -8
0 -15 -4 -15 -10z"/>
<path d="M10383 6494 c-3 -8 -2 -19 3 -24 13 -12 54 7 54 25 0 20 -49 20 -57
-1z"/>
<path d="M5586 6463 c37 -58 67 -221 53 -296 -5 -29 -14 -80 -19 -115 -6 -34
-17 -79 -25 -99 -16 -38 -20 -93 -7 -93 4 0 24 17 45 38 30 30 41 54 61 132
14 52 35 124 46 160 25 81 25 91 -1 143 -48 93 -109 156 -153 157 -18 0 -18
-1 0 -27z"/>
<path d="M7153 6466 c-10 -13 -29 -70 -42 -127 -37 -162 -82 -339 -92 -368
-16 -42 -146 -238 -220 -331 -72 -91 -124 -127 -199 -137 -35 -5 -43 -2 -68
25 -20 21 -31 46 -36 78 -13 99 -10 121 48 334 33 123 33 149 -1 182 -45 43
-80 52 -128 33 -32 -12 -46 -25 -63 -60 -12 -25 -22 -55 -22 -67 0 -12 -16
-68 -35 -124 l-36 -104 20 -37 c10 -21 27 -67 36 -103 10 -36 26 -84 37 -108
20 -42 79 -106 121 -129 36 -20 161 -16 205 6 66 34 143 126 213 255 36 68 66
23 45 -68 -15 -65 -5 -143 22 -163 9 -7 41 -13 72 -13 74 0 100 26 129 132 21
75 93 250 114 276 7 9 3 12 -16 12 -44 0 -48 16 -38 156 5 71 14 142 20 157 6
16 11 57 11 91 0 34 5 88 11 120 16 79 4 106 -50 106 -30 0 -44 -6 -58 -24z"/>
<path d="M7336 6403 c-4 -49 -14 -121 -23 -160 -9 -40 -13 -76 -8 -80 4 -5 10
-2 12 5 3 7 11 18 18 25 7 7 20 28 29 45 9 18 35 60 56 94 22 34 40 68 40 76
0 21 -71 82 -96 82 -20 0 -22 -6 -28 -87z"/>
<path d="M3409 6452 c-28 -23 -21 -45 22 -71 36 -22 49 -19 49 10 0 24 -27 79
-39 79 -5 0 -19 -8 -32 -18z"/>
<path d="M6645 6429 c9 -17 16 -55 16 -86 0 -52 -2 -59 -42 -99 l-42 -43 37
-49 c45 -62 46 -89 6 -213 -16 -52 -30 -102 -30 -112 0 -10 -7 -50 -15 -90
-12 -62 -13 -78 -1 -112 20 -58 51 -59 100 -4 45 49 60 83 92 202 27 100 30
170 9 207 -20 35 -18 74 4 94 10 10 24 38 30 63 10 37 9 54 -4 93 -18 54 -78
128 -129 159 -45 28 -49 26 -31 -10z"/>
<path d="M10330 6444 c0 -8 6 -14 14 -14 7 0 19 6 25 14 9 11 6 14 -14 14 -15
0 -25 -6 -25 -14z"/>
<path d="M440 6409 c0 -5 5 -7 10 -4 6 3 10 8 10 11 0 2 -4 4 -10 4 -5 0 -10
-5 -10 -11z"/>
<path d="M9395 6388 c4 -13 10 -67 12 -121 5 -94 -6 -156 -38 -219 -13 -26
-12 -28 17 -28 29 0 150 70 170 98 15 22 5 112 -17 154 -22 42 -80 108 -109
123 -39 20 -44 19 -35 -7z"/>
<path d="M4262 6363 c24 -46 41 -95 45 -125 6 -44 -27 -118 -86 -192 -48 -60
-102 -191 -127 -306 -27 -120 -27 -324 0 -362 10 -16 21 -28 25 -28 4 0 26 16
48 35 43 36 42 35 62 175 19 133 89 299 156 370 55 58 70 96 69 175 -1 82 -19
129 -71 186 -40 44 -136 101 -121 72z"/>
<path d="M9127 6349 c-34 -20 -67 -86 -67 -134 0 -87 83 -218 116 -183 6 7 22
46 34 87 46 151 0 278 -83 230z"/>
<path d="M10015 6290 c-4 -6 5 -10 19 -10 14 0 26 5 26 10 0 6 -9 10 -19 10
-11 0 -23 -4 -26 -10z"/>
<path d="M6186 6271 c-45 -30 -112 -118 -160 -213 -49 -95 -76 -177 -100 -308
-15 -80 -15 -89 1 -149 25 -91 43 -98 97 -40 39 40 45 54 56 119 16 96 95 281
145 340 7 8 29 48 50 88 21 40 46 77 56 83 33 17 23 53 -20 77 -48 27 -87 28
-125 3z"/>
<path d="M7650 6223 c-149 -113 -305 -346 -390 -582 -16 -46 -30 -94 -30 -105
0 -41 -62 -128 -109 -153 -83 -43 -192 -22 -241 47 -24 34 -41 38 -61 13 -44
-52 -187 -113 -268 -113 -88 0 -218 86 -256 170 -10 22 -22 40 -26 40 -5 0
-21 -17 -36 -37 -59 -80 -159 -171 -199 -182 -94 -26 -187 -6 -248 53 -52 51
-106 161 -113 233 -3 29 -10 53 -15 53 -5 0 -24 -14 -41 -32 -54 -54 -156
-126 -190 -134 -22 -4 -64 -40 -142 -118 -66 -68 -130 -123 -161 -139 -94 -49
-244 -80 -288 -59 -11 6 -36 13 -55 16 -33 6 -128 70 -163 111 -31 36 -90 155
-107 218 -10 33 -22 62 -28 64 -6 2 -17 -13 -23 -34 -7 -21 -16 -42 -20 -48
-5 -5 -27 -48 -51 -94 -45 -89 -125 -183 -195 -232 -35 -24 -53 -29 -99 -29
-31 0 -69 7 -84 14 -33 18 -86 76 -96 105 -3 12 -10 21 -15 21 -5 0 -11 8 -13
18 -4 13 -5 11 -6 -6 -1 -30 56 -167 90 -215 15 -21 45 -51 66 -66 127 -93
273 -53 396 108 57 76 87 120 87 130 0 4 8 15 19 25 17 16 20 14 60 -47 121
-186 256 -254 446 -227 44 7 85 15 90 20 6 4 26 13 47 19 60 20 170 104 252
194 49 54 87 87 104 90 15 3 52 22 82 41 60 40 88 45 96 19 15 -52 64 -132
104 -170 65 -62 107 -76 227 -71 97 3 102 4 159 42 32 21 76 57 97 79 l37 41
38 -35 c48 -46 79 -64 148 -90 49 -19 69 -21 143 -15 73 6 99 13 170 48 67 33
87 39 100 30 41 -30 92 -45 157 -50 58 -3 80 0 123 19 68 29 124 97 141 171
28 118 124 323 220 466 34 51 66 107 71 125 58 186 72 267 47 267 -7 0 -29
-12 -48 -27z"/>
<path d="M10487 6163 c-31 -8 -15 -37 26 -46 31 -8 42 -6 55 6 31 32 -18 56
-81 40z"/>
<path d="M550 6146 c0 -10 9 -16 21 -16 24 0 21 23 -4 28 -10 2 -17 -3 -17
-12z"/>
<path d="M802 6148 c3 -7 13 -15 24 -17 16 -3 17 -1 5 13 -16 19 -34 21 -29 4z"/>
<path d="M9845 6103 c-75 -18 -149 -52 -222 -101 -149 -101 -227 -142 -269
-142 -51 0 -121 -37 -161 -85 -54 -65 -151 -139 -243 -186 -72 -37 -94 -43
-182 -51 -63 -6 -131 -6 -181 1 -68 8 -88 15 -136 48 -66 46 -108 101 -125
169 -15 60 -38 69 -61 23 -10 -18 -65 -80 -124 -139 -140 -142 -211 -180 -332
-180 -85 0 -136 19 -158 58 -14 25 -30 3 -24 -33 9 -56 72 -134 138 -169 57
-31 60 -34 63 -74 l3 -42 57 1 c31 0 80 4 107 9 28 5 86 14 130 20 44 6 107
17 140 24 89 21 222 47 290 57 166 23 311 50 400 74 28 7 75 16 105 20 64 8
100 28 100 55 0 20 9 30 65 75 21 17 50 43 65 58 23 24 28 26 39 13 8 -10 12
-36 9 -68 -3 -47 -1 -53 17 -56 11 -1 35 7 54 19 l34 20 -7 71 c-6 68 -5 70
22 96 16 15 52 35 80 45 27 9 76 36 108 60 139 101 276 167 347 167 18 0 59
-12 92 -25 33 -14 62 -25 64 -25 2 0 1 19 -2 41 -12 91 -105 158 -217 157 -36
0 -74 -2 -85 -5z"/>
<path d="M10290 6068 c0 -3 9 -34 21 -69 41 -128 3 -218 -144 -338 -83 -67
-119 -90 -242 -156 -49 -26 -97 -52 -105 -56 -36 -20 -128 -59 -137 -59 -6 0
-16 -7 -23 -15 -7 -8 -23 -15 -36 -15 -12 0 -25 -4 -29 -9 -3 -5 -22 -15 -43
-21 -20 -6 -50 -17 -67 -25 -16 -7 -45 -18 -62 -24 -84 -29 -100 -35 -125 -47
-14 -8 -37 -14 -51 -14 -13 0 -30 -6 -36 -14 -7 -8 -31 -18 -54 -21 -23 -4
-51 -14 -62 -21 -11 -8 -29 -14 -40 -14 -11 0 -37 -9 -58 -20 -20 -11 -48 -20
-62 -20 -14 0 -43 -9 -65 -20 -22 -11 -44 -20 -51 -20 -6 0 -25 -6 -42 -14
-18 -7 -52 -19 -77 -25 -84 -23 -225 -68 -255 -82 -21 -10 -111 -36 -155 -45
-14 -3 -44 -14 -67 -25 -24 -10 -51 -19 -60 -19 -10 0 -38 -9 -62 -20 -24 -11
-55 -20 -70 -20 -14 0 -35 -7 -45 -15 -11 -8 -30 -15 -43 -15 -13 0 -37 -7
-52 -15 -16 -8 -46 -19 -67 -24 -22 -5 -70 -21 -109 -36 -38 -14 -95 -32 -125
-39 -30 -8 -80 -24 -110 -35 -30 -12 -98 -35 -150 -51 -81 -25 -512 -168 -605
-200 -16 -6 -97 -33 -180 -61 -82 -28 -159 -55 -170 -60 -19 -8 -173 -64 -260
-94 -22 -7 -83 -29 -135 -49 -52 -19 -133 -49 -180 -66 -47 -17 -98 -37 -115
-44 -16 -8 -68 -28 -115 -46 -177 -68 -522 -206 -565 -225 -16 -7 -106 -46
-200 -85 -93 -40 -210 -91 -260 -115 -49 -23 -112 -53 -140 -65 -259 -115
-643 -309 -884 -449 -68 -39 -125 -71 -128 -71 -3 0 -17 -8 -31 -19 -15 -10
-43 -27 -62 -37 -166 -90 -579 -375 -793 -549 -111 -90 -112 -91 -109 -130 5
-65 26 -158 37 -162 6 -2 57 38 115 88 192 167 540 419 578 419 10 0 37 -13
58 -30 76 -58 303 -219 331 -235 15 -9 49 -28 74 -43 134 -79 326 -177 484
-247 79 -35 385 -143 455 -160 30 -7 82 -20 115 -29 207 -56 457 -92 757 -108
422 -22 800 21 1243 140 327 89 795 307 1095 512 795 541 1352 1344 1578 2271
28 112 55 240 62 284 6 44 16 97 21 118 11 43 10 42 184 107 306 115 517 224
709 367 126 94 186 187 186 290 0 49 -5 67 -34 114 -20 31 -56 69 -83 88 -26
19 -54 41 -60 49 -7 9 -13 13 -13 10z m-998 -1050 c6 -14 -23 -190 -40 -253
-6 -22 -21 -83 -33 -135 -12 -52 -30 -114 -41 -138 -10 -24 -18 -56 -18 -71 0
-15 -4 -31 -9 -37 -5 -5 -22 -49 -39 -99 -17 -49 -43 -119 -58 -155 -33 -82
-196 -410 -232 -467 -107 -170 -213 -321 -307 -440 -105 -133 -429 -469 -509
-529 -21 -16 -62 -47 -90 -70 -179 -142 -425 -305 -553 -366 -34 -17 -68 -36
-74 -44 -6 -8 -18 -14 -26 -14 -8 0 -27 -6 -41 -14 -188 -99 -585 -242 -782
-281 -47 -9 -103 -21 -125 -26 -277 -65 -812 -98 -1030 -65 -55 9 -149 20
-210 26 -60 6 -137 17 -170 24 -33 8 -96 22 -140 31 -234 51 -497 137 -695
227 -177 80 -430 217 -507 274 -17 13 -34 24 -37 24 -6 0 -152 102 -218 152
-26 20 -53 38 -60 40 -34 12 81 108 129 108 16 0 93 -49 141 -90 7 -7 70 -48
139 -92 111 -70 181 -110 313 -180 19 -10 42 -22 50 -27 16 -10 152 -67 240
-101 30 -12 65 -26 77 -30 94 -37 369 -120 397 -120 8 0 35 -6 58 -14 73 -23
277 -54 538 -82 131 -14 182 -14 325 -5 403 25 492 37 755 94 84 18 286 79
375 112 39 15 81 30 95 35 77 24 400 179 460 220 8 5 37 22 65 36 27 15 60 34
75 44 23 17 92 62 129 85 101 63 335 258 485 404 115 113 318 346 388 446 101
145 148 217 183 280 21 39 47 86 58 105 56 100 80 148 132 266 108 243 207
554 239 749 11 63 23 106 34 117 16 15 122 57 148 58 7 0 14 -6 16 -12z
m-1758 -554 c27 -10 18 -36 -54 -148 -233 -360 -573 -650 -975 -834 -104 -47
-303 -114 -390 -132 -33 -6 -89 -18 -124 -26 -36 -9 -117 -20 -180 -25 -63 -6
-119 -12 -123 -15 -15 -9 -400 17 -473 32 -38 8 -95 19 -125 25 -112 20 -293
85 -287 103 4 11 79 50 167 86 30 12 69 28 85 35 17 8 111 46 210 85 99 40
194 78 211 86 54 24 338 132 604 230 52 19 118 44 145 54 120 45 552 196 680
237 77 24 154 50 170 58 17 7 55 21 85 30 30 9 78 26 105 36 28 10 56 19 64
19 19 0 164 51 176 61 11 11 9 11 29 3z m457 -64 c29 -16 24 -55 -10 -79 -54
-39 -81 -104 -56 -137 14 -18 16 -18 42 12 16 18 42 51 58 74 17 23 47 51 69
62 38 19 40 19 78 2 48 -21 88 -71 88 -108 0 -72 -54 -169 -130 -233 l-28 -23
-28 25 c-30 28 -29 30 37 95 41 39 64 102 48 131 -19 36 -51 16 -97 -61 -26
-45 -71 -86 -100 -93 -36 -8 -85 11 -111 44 -46 59 -25 156 54 244 19 22 35
43 35 47 0 11 28 10 51 -2z m-134 -496 c73 -36 113 -100 113 -178 0 -68 -20
-112 -81 -178 -95 -100 -242 -89 -322 25 -54 76 -35 194 47 286 29 32 113 71
157 71 19 0 58 -11 86 -26z m-424 -428 c54 -23 103 -79 122 -141 28 -87 13
-119 -102 -231 -52 -51 -106 -98 -120 -105 -23 -12 -27 -12 -37 5 -12 22 -188
229 -197 234 -3 1 -14 9 -24 16 -15 11 -16 15 -4 38 18 33 193 178 228 188 41
13 99 11 134 -4z m-558 -377 c50 -42 245 -174 268 -182 22 -7 -14 -56 -51 -68
-33 -11 -37 -10 -54 15 -28 37 -70 34 -138 -12 -42 -29 -56 -44 -58 -66 -2
-16 1 -33 7 -39 6 -6 11 -14 11 -18 0 -9 -89 -53 -96 -47 -2 3 -7 88 -10 189
-5 138 -10 188 -21 201 -16 18 -16 17 42 49 43 24 45 23 100 -22z m-2314 -90
c19 -6 80 -29 135 -51 158 -61 192 -115 126 -197 -25 -32 -31 -46 -26 -69 8
-41 -13 -99 -43 -119 -41 -27 -106 -19 -238 30 -65 24 -121 49 -123 55 -3 10
110 331 124 354 6 10 5 10 45 -3z m1935 -120 c54 -33 90 -123 86 -215 -3 -58
-86 -131 -177 -155 -16 -4 -61 -17 -100 -28 -38 -11 -72 -18 -76 -15 -4 2 -12
26 -18 53 -9 42 -47 172 -82 279 -6 19 -9 35 -7 37 5 4 227 69 273 80 17 4 64
-13 101 -36z m-1173 -59 c34 -17 55 -36 68 -62 10 -20 23 -39 29 -43 19 -12
12 -121 -12 -162 -53 -93 -94 -117 -199 -116 -83 1 -123 16 -177 66 -94 90
-66 263 53 327 56 29 170 25 238 -10z m583 -1 c37 -10 48 -18 64 -50 11 -21
20 -48 20 -59 0 -31 -25 -75 -54 -94 -15 -9 -26 -22 -26 -29 0 -7 20 -35 45
-64 61 -70 61 -70 -28 -88 -12 -2 -28 13 -51 48 -64 97 -100 120 -155 101 -23
-9 -26 -15 -25 -54 0 -25 4 -59 8 -76 8 -31 7 -32 -34 -39 -25 -4 -46 -3 -52
3 -6 6 -12 54 -14 109 -3 54 -9 138 -15 186 -6 49 -8 91 -5 94 3 4 59 9 123
13 65 4 126 8 136 8 10 1 38 -3 63 -9z"/>
<path d="M6979 3918 c-19 -15 -32 -48 -20 -48 13 0 43 38 39 50 -2 7 -8 7 -19
-2z"/>
<path d="M5915 3730 c3 -5 8 -10 11 -10 2 0 4 5 4 10 0 6 -5 10 -11 10 -5 0
-7 -4 -4 -10z"/>
<path d="M5730 3710 c0 -5 7 -10 15 -10 8 0 15 5 15 10 0 6 -7 10 -15 10 -8 0
-15 -4 -15 -10z"/>
<path d="M5573 3643 c-7 -2 -13 -11 -13 -18 0 -10 7 -11 35 -2 24 7 31 13 23
19 -14 9 -27 9 -45 1z"/>
<path d="M5110 3450 c0 -5 15 -10 34 -10 19 0 38 5 41 10 4 6 -10 10 -34 10
-23 0 -41 -4 -41 -10z"/>
<path d="M5243 3433 c9 -2 23 -2 30 0 6 3 -1 5 -18 5 -16 0 -22 -2 -12 -5z"/>
<path d="M7694 3814 c-80 -39 -86 -168 -10 -218 14 -9 45 -16 68 -16 88 0 151
75 127 149 -19 57 -38 80 -78 91 -49 13 -70 12 -107 -6z"/>
<path d="M7295 3391 c-22 -10 -55 -35 -74 -54 -28 -29 -33 -40 -25 -57 15 -34
136 -170 151 -170 8 0 39 23 69 51 51 49 54 54 54 102 0 59 -29 105 -83 131
-43 20 -43 20 -92 -3z"/>
<path d="M6840 2956 c0 -25 4 -47 8 -50 5 -3 21 6 38 19 l29 23 -24 26 c-37
39 -51 34 -51 -18z"/>
<path d="M4574 2885 c-9 -35 4 -47 86 -75 61 -21 72 -23 80 -10 25 39 -4 67
-97 95 -62 19 -62 19 -69 -10z"/>
<path d="M4520 2731 c-6 -17 -10 -34 -7 -38 3 -5 40 -20 81 -33 62 -19 78 -21
91 -10 38 31 10 64 -82 93 -68 22 -69 22 -83 -12z"/>
<path d="M6303 2821 c-29 -9 -55 -19 -58 -22 -6 -6 14 -92 41 -171 18 -55 22
-56 108 -29 49 15 63 25 78 52 23 42 22 63 -1 115 -34 74 -71 86 -168 55z"/>
<path d="M5115 2747 c-32 -32 -35 -40 -35 -92 0 -51 3 -60 33 -90 41 -41 77
-51 128 -36 54 16 79 58 79 133 0 82 -26 110 -108 116 -60 4 -63 3 -97 -31z"/>
<path d="M5718 2753 c-31 -5 -40 -22 -32 -61 6 -28 6 -28 72 -24 84 5 132 24
132 51 0 11 -9 25 -19 31 -19 10 -98 11 -153 3z"/>
<path d="M10204 5947 c1 -81 -2 -97 -24 -132 -41 -67 -98 -122 -162 -155 -33
-17 -74 -39 -92 -49 -63 -35 -239 -102 -368 -141 -73 -22 -200 -61 -283 -86
-82 -26 -192 -54 -245 -64 -52 -10 -133 -28 -180 -39 -47 -11 -116 -25 -155
-32 -38 -6 -96 -20 -127 -30 -31 -10 -92 -23 -135 -28 -43 -6 -134 -19 -203
-31 -119 -20 -273 -42 -425 -60 -38 -4 -140 -20 -225 -34 -85 -14 -198 -30
-250 -36 -134 -14 -323 -38 -476 -61 -72 -10 -158 -19 -190 -19 -33 -1 -79 -5
-104 -11 -25 -5 -106 -14 -180 -19 -74 -6 -166 -15 -205 -20 -38 -5 -129 -14
-202 -20 -73 -5 -185 -16 -250 -23 -65 -8 -143 -15 -173 -16 -30 -1 -109 -8
-175 -16 -66 -8 -163 -17 -215 -19 -142 -8 -348 -25 -497 -42 -73 -8 -192 -19
-265 -24 -73 -5 -167 -14 -208 -19 -41 -6 -124 -16 -185 -21 -294 -29 -493
-51 -625 -69 -80 -12 -176 -25 -215 -30 -38 -6 -108 -15 -155 -22 -294 -39
-732 -114 -855 -146 -140 -36 -163 -42 -215 -53 -122 -26 -390 -117 -540 -183
-321 -141 -530 -293 -711 -516 -47 -57 -90 -123 -84 -129 2 -2 25 6 52 18 277
124 518 171 725 141 156 -22 334 -92 458 -179 196 -139 376 -386 464 -637 16
-44 34 -94 42 -111 7 -17 20 -58 28 -90 7 -32 20 -84 29 -114 9 -30 18 -81 22
-112 3 -32 11 -60 16 -63 5 -4 9 -1 9 4 0 6 5 11 10 11 6 0 21 9 33 21 66 63
552 409 573 409 3 0 20 11 37 24 34 25 356 215 442 260 28 14 104 55 170 91
120 65 364 186 505 252 41 19 82 39 90 44 8 5 22 12 30 15 8 3 60 26 115 52
55 25 125 55 155 68 48 19 104 43 260 111 19 8 62 26 95 40 33 14 69 30 79 35
10 6 42 18 70 28 59 20 241 93 303 121 23 10 48 19 55 19 8 0 22 6 33 14 11 7
36 18 55 24 19 6 67 22 105 37 125 47 139 52 230 84 50 18 106 38 125 46 107
42 233 85 249 85 10 0 24 7 31 15 7 8 23 15 35 15 13 0 56 14 96 31 41 17 92
35 113 40 59 15 239 77 272 94 16 8 36 15 44 15 15 0 112 31 155 49 40 17 187
61 204 61 10 0 21 3 25 7 10 10 130 51 178 62 21 5 44 13 51 19 7 6 33 14 57
18 24 4 55 13 69 21 14 7 33 13 41 13 8 0 33 9 55 20 22 11 54 19 72 20 17 0
34 4 37 9 3 4 20 11 37 15 17 3 45 12 62 20 18 8 75 26 127 41 52 14 111 32
130 40 43 16 254 82 294 91 16 4 41 13 55 20 14 8 32 14 40 14 11 0 74 19 266
82 17 5 73 22 125 39 52 16 104 33 115 39 11 5 36 13 55 19 47 13 101 32 124
43 10 6 39 16 65 23 61 18 132 43 153 55 10 6 23 10 31 10 7 0 28 8 47 19 19
10 46 22 60 26 26 8 215 96 305 142 69 36 177 106 194 126 7 9 19 17 26 17 8
0 39 28 69 62 62 68 92 143 80 195 -8 32 -42 93 -53 93 -4 0 -7 -42 -7 -93z"/>
<path d="M2471 5991 c0 -8 -10 -32 -21 -55 -11 -23 -35 -83 -55 -134 -128
-333 -264 -573 -404 -712 -137 -135 -266 -185 -411 -161 -106 17 -174 63 -240
164 -39 59 -40 60 -35 27 16 -100 62 -189 133 -263 32 -32 73 -67 92 -77 51
-26 146 -43 202 -36 42 6 51 4 72 -17 16 -16 28 -45 35 -83 6 -32 19 -84 29
-114 16 -49 22 -55 49 -58 18 -2 35 3 43 13 13 16 11 28 -31 181 -22 80 -16
117 23 129 13 4 39 21 59 36 44 35 45 35 52 7 15 -71 80 -294 87 -302 5 -5 37
0 77 12 62 20 368 76 588 107 50 7 122 18 160 24 85 13 304 39 403 47 60 6 72
10 72 25 0 10 -16 67 -36 126 -60 183 -60 182 34 384 44 96 95 212 112 259 73
191 83 215 94 222 6 4 40 5 76 2 86 -8 92 -1 88 103 l-3 78 -135 5 c-170 6
-168 8 -215 -150 -30 -104 -175 -436 -231 -532 -49 -83 -128 -163 -191 -193
-51 -25 -172 -25 -228 0 -56 24 -154 130 -192 206 -54 110 -71 161 -88 269 -9
58 -23 134 -31 170 -8 36 -18 119 -23 185 -4 66 -9 114 -10 106z"/>
<path d="M9418 5953 c7 -3 16 -2 19 1 4 3 -2 6 -13 5 -11 0 -14 -3 -6 -6z"/>
<path d="M175 5940 c-4 -6 -3 -14 0 -20 9 -15 35 -12 35 4 0 17 -27 29 -35 16z"/>
<path d="M2320 5865 c0 -8 2 -15 4 -15 2 0 6 7 10 15 3 8 1 15 -4 15 -6 0 -10
-7 -10 -15z"/>
<path d="M0 5819 c0 -43 6 -48 26 -21 19 25 17 49 -6 55 -17 4 -20 0 -20 -34z"/>
<path d="M9783 5778 c-4 -7 -8 -20 -8 -28 0 -10 -11 -15 -33 -15 -25 0 -41 -8
-63 -32 -16 -18 -37 -33 -48 -33 -10 0 -24 -7 -31 -15 -11 -13 -7 -15 29 -15
32 0 44 5 57 25 20 31 44 32 44 3 0 -20 6 -16 45 27 47 52 49 54 39 79 -7 19
-20 21 -31 4z"/>
<path d="M9918 5764 c-3 -3 -4 -14 -1 -24 4 -16 9 -17 29 -8 31 14 31 38 1 38
-13 0 -26 -3 -29 -6z"/>
<path d="M13 5553 c-15 -5 -18 -33 -4 -33 8 0 25 30 19 35 -2 1 -9 0 -15 -2z"/>
<path d="M1045 5540 c-11 -12 -31 -20 -48 -20 l-31 0 34 -30 c18 -16 38 -30
42 -30 5 0 16 16 24 35 25 61 15 84 -21 45z"/>
<path d="M275 5511 c-39 -17 -83 -91 -53 -91 24 0 71 46 74 73 1 15 2 27 1 26
-1 0 -11 -4 -22 -8z"/>
<path d="M7470 5475 c0 -8 2 -15 4 -15 2 0 6 7 10 15 3 8 1 15 -4 15 -6 0 -10
-7 -10 -15z"/>
<path d="M55 5469 c-10 -15 1 -22 24 -14 12 3 19 11 16 16 -8 12 -32 11 -40
-2z"/>
<path d="M160 5430 c13 -23 20 -26 20 -6 0 8 -7 16 -15 20 -13 4 -14 2 -5 -14z"/>
<path d="M3729 5404 c-11 -14 -10 -18 6 -30 33 -24 40 -19 29 24 -7 26 -17 28
-35 6z"/>
<path d="M10576 5405 c-4 -10 1 -15 14 -15 11 0 20 7 20 15 0 8 -6 15 -14 15
-8 0 -16 -7 -20 -15z"/>
<path d="M10720 5350 c-11 -7 -5 -10 23 -10 20 0 37 5 37 10 0 13 -40 13 -60
0z"/>
<path d="M10315 5341 c-3 -5 -1 -12 5 -16 5 -3 10 1 10 9 0 18 -6 21 -15 7z"/>
<path d="M10635 5317 c-40 -15 -38 -13 -30 -36 3 -12 19 -28 35 -36 27 -14 30
-14 38 2 10 19 4 84 -7 82 -3 -1 -19 -6 -36 -12z"/>
<path d="M1097 5274 c2 -7 19 -17 36 -23 17 -6 38 -18 48 -26 15 -14 17 -13
23 16 3 18 5 33 4 34 -2 2 -28 5 -60 7 -42 3 -55 1 -51 -8z"/>
<path d="M681 5224 c0 -11 3 -14 6 -6 3 7 2 16 -1 19 -3 4 -6 -2 -5 -13z"/>
<path d="M1038 5163 c-10 -2 -18 -9 -18 -14 0 -14 26 -11 40 6 13 15 9 16 -22
8z"/>
<path d="M3790 5160 c0 -5 7 -10 15 -10 8 0 15 5 15 10 0 6 -7 10 -15 10 -8 0
-15 -4 -15 -10z"/>
<path d="M10020 5027 c0 -27 23 -52 40 -42 12 8 13 55 1 55 -5 0 -16 3 -25 6
-12 5 -16 0 -16 -19z"/>
<path d="M9499 5021 c-13 -11 -21 -22 -17 -26 4 -4 17 2 29 14 29 27 19 37
-12 12z"/>
<path d="M1212 4958 c-7 -7 -12 -18 -12 -25 0 -7 -4 -13 -8 -13 -4 0 -16 -20
-26 -45 -11 -25 -23 -45 -28 -45 -5 0 -8 -17 -6 -37 2 -30 9 -41 32 -52 25
-12 27 -15 14 -25 -23 -17 -41 -57 -30 -68 17 -17 62 4 97 45 19 22 35 46 35
53 0 6 7 17 15 24 21 18 19 47 -5 53 -11 3 -20 11 -20 17 0 7 7 10 16 6 14 -5
16 -1 10 26 -3 18 -10 36 -16 42 -15 15 -40 -2 -40 -29 0 -16 -6 -25 -16 -25
-9 0 -12 5 -8 12 11 18 22 88 14 93 -4 2 -12 -1 -18 -7z m-15 -152 c-4 -9 -11
-16 -17 -16 -17 0 -24 31 -9 41 18 11 34 -5 26 -25z"/>
<path d="M9472 4945 c0 -16 2 -22 5 -12 2 9 2 23 0 30 -3 6 -5 -1 -5 -18z"/>
<path d="M340 4936 c0 -19 27 -28 33 -11 7 15 -1 25 -20 25 -7 0 -13 -6 -13
-14z"/>
<path d="M425 4930 c3 -5 8 -10 11 -10 2 0 4 5 4 10 0 6 -5 10 -11 10 -5 0 -7
-4 -4 -10z"/>
<path d="M10220 4846 c0 -2 7 -6 15 -10 8 -3 15 -1 15 4 0 6 -7 10 -15 10 -8
0 -15 -2 -15 -4z"/>
<path d="M10516 4783 c7 -63 11 -76 24 -68 7 4 7 58 1 118 -1 4 -8 7 -16 7
-13 0 -14 -10 -9 -57z"/>
<path d="M3660 4805 c0 -8 5 -15 10 -15 6 0 10 7 10 15 0 8 -4 15 -10 15 -5 0
-10 -7 -10 -15z"/>
<path d="M10597 4774 c-8 -8 1 -24 14 -24 5 0 9 7 9 15 0 15 -12 20 -23 9z"/>
<path d="M9441 4734 c0 -11 3 -14 6 -6 3 7 2 16 -1 19 -3 4 -6 -2 -5 -13z"/>
<path d="M9470 4732 c0 -6 -7 -18 -16 -27 -15 -15 -15 -17 0 -34 16 -18 18
-18 60 1 41 20 74 54 61 66 -3 3 -19 -2 -36 -12 -29 -17 -31 -17 -50 0 -10 9
-19 12 -19 6z"/>
<path d="M487 4584 c-4 -4 -4 -10 -1 -15 6 -10 34 0 34 12 0 10 -24 12 -33 3z"/>
<path d="M9766 4523 c-11 -11 -6 -23 8 -23 8 0 17 4 20 9 7 10 -19 23 -28 14z"/>
<path d="M420 4493 c1 -24 29 -55 64 -71 50 -22 46 -11 -25 76 -15 18 -39 15
-39 -5z"/>
<path d="M10356 4485 c-4 -12 -1 -16 11 -13 18 3 21 20 5 26 -5 1 -12 -4 -16
-13z"/>
<path d="M1200 4461 c0 -6 -9 -11 -19 -11 -11 0 -22 -4 -25 -9 -3 -4 -16 -6
-29 -4 -14 3 -33 -4 -47 -16 l-25 -20 27 -1 c15 0 30 5 33 10 3 6 21 10 40 10
18 0 40 3 49 6 18 7 21 30 6 39 -5 3 -10 1 -10 -4z"/>
<path d="M10320 4460 c0 -5 5 -10 11 -10 5 0 7 5 4 10 -3 6 -8 10 -11 10 -2 0
-4 -4 -4 -10z"/>
<path d="M577 4341 c33 -46 66 -71 56 -43 -7 21 -64 82 -76 82 -4 0 4 -18 20
-39z"/>
<path d="M9561 4303 c-44 -54 -36 -118 8 -74 12 12 33 26 46 31 33 13 33 34 0
26 -29 -7 -48 20 -24 35 9 5 10 9 2 9 -6 0 -21 -12 -32 -27z"/>
<path d="M9837 4263 c-15 -15 -6 -33 17 -33 23 0 41 22 29 34 -8 8 -38 8 -46
-1z"/>
<path d="M34 4169 c-3 -6 -1 -16 5 -22 6 -6 11 -32 11 -57 0 -41 5 -50 43 -87
23 -23 51 -43 62 -45 15 -2 20 -11 20 -35 1 -17 8 -40 17 -50 8 -10 27 -43 42
-73 14 -31 39 -71 56 -90 18 -20 30 -45 30 -61 l0 -27 37 19 c21 10 43 19 50
19 7 0 13 11 13 25 0 14 -4 25 -10 25 -5 0 -16 13 -25 30 -9 16 -36 51 -61 77
-36 39 -43 53 -39 73 10 43 7 63 -15 84 -11 12 -36 38 -56 58 -20 21 -40 35
-45 32 -5 -3 -9 3 -9 14 0 20 -85 102 -106 102 -7 0 -16 -5 -20 -11z m209
-229 c4 -17 2 -18 -14 -9 -22 11 -25 29 -5 29 7 0 16 -9 19 -20z"/>
<path d="M9263 4033 c-16 -6 -17 -33 -3 -33 11 0 26 28 19 34 -2 2 -10 1 -16
-1z"/>
<path d="M9535 3860 c-3 -5 3 -10 15 -10 12 0 18 5 15 10 -3 6 -10 10 -15 10
-5 0 -12 -4 -15 -10z"/>
<path d="M9060 3705 c-7 -8 -10 -22 -6 -30 8 -22 36 -30 47 -14 13 21 11 33
-10 46 -15 10 -22 9 -31 -2z"/>
<path d="M1090 3630 c-19 -5 -65 -16 -102 -24 -60 -14 -124 -35 -213 -70 -29
-12 -140 -68 -180 -92 -11 -7 -39 -22 -61 -33 -64 -33 -59 -24 -168 -286 -19
-46 -21 -61 -11 -63 7 -2 79 40 160 93 146 96 306 188 348 200 12 4 50 18 85
31 93 37 233 65 353 71 112 6 231 -13 356 -56 141 -49 327 -196 433 -342 50
-69 148 -249 184 -339 10 -25 21 -39 23 -33 3 7 -17 69 -42 137 -165 439 -451
719 -805 790 -14 3 -43 10 -65 15 -47 12 -245 12 -295 1z"/>
<path d="M9612 3596 c1 -10 8 -17 13 -17 15 1 12 24 -3 29 -9 3 -13 -2 -10
-12z"/>
<path d="M10527 3463 c-10 -10 -8 -53 2 -53 5 0 17 7 26 16 12 12 13 19 4 30
-13 15 -22 18 -32 7z"/>
<path d="M8845 3313 c-26 -7 -55 -33 -55 -50 0 -22 25 -15 59 17 42 40 41 44
-4 33z"/>
<path d="M927 3283 c-13 -12 -7 -23 13 -23 13 0 18 5 14 15 -7 16 -17 19 -27
8z"/>
<path d="M10180 3275 c0 -8 4 -15 9 -15 5 0 11 7 15 15 3 9 0 15 -9 15 -8 0
-15 -7 -15 -15z"/>
<path d="M1522 3264 c1 -9 9 -19 16 -22 9 -3 13 2 10 14 -1 9 -9 19 -16 22 -9
3 -13 -2 -10 -14z"/>
<path d="M1235 3249 c-4 -6 -5 -13 -2 -16 7 -7 27 6 27 18 0 12 -17 12 -25 -2z"/>
<path d="M1410 3175 c0 -20 39 -40 52 -27 6 6 8 18 5 26 -8 20 -57 21 -57 1z"/>
<path d="M995 3170 c-3 -5 -1 -10 4 -10 6 0 11 5 11 10 0 6 -2 10 -4 10 -3 0
-8 -4 -11 -10z"/>
<path d="M1708 3113 c7 -3 16 -2 19 1 4 3 -2 6 -13 5 -11 0 -14 -3 -6 -6z"/>
<path d="M10766 3105 c-4 -11 -13 -14 -32 -9 -35 9 -28 -17 8 -30 36 -13 58
-1 58 29 0 28 -24 35 -34 10z"/>
<path d="M1252 3048 c-14 -37 -13 -37 23 -44 19 -3 31 1 41 13 20 26 17 38
-11 51 -36 17 -39 16 -53 -20z"/>
<path d="M10465 3060 c3 -5 8 -10 11 -10 2 0 4 5 4 10 0 6 -5 10 -11 10 -5 0
-7 -4 -4 -10z"/>
<path d="M10500 3020 c0 -5 5 -10 10 -10 6 0 10 5 10 10 0 6 -4 10 -10 10 -5
0 -10 -4 -10 -10z"/>
<path d="M10328 2993 c7 -3 16 -2 19 1 4 3 -2 6 -13 5 -11 0 -14 -3 -6 -6z"/>
<path d="M8551 2976 c-9 -10 -8 -15 4 -20 8 -3 15 -10 15 -15 0 -9 -44 -40
-101 -71 -26 -15 -69 -61 -69 -75 0 -4 15 -4 33 -1 26 5 42 1 71 -19 43 -29
49 -30 67 -9 11 13 8 19 -17 40 -24 20 -26 25 -14 33 8 5 26 19 39 30 13 12
37 21 52 21 44 0 45 19 3 61 -41 41 -64 48 -83 25z"/>
<path d="M9095 2970 c-3 -5 1 -10 10 -10 9 0 13 5 10 10 -3 6 -8 10 -10 10 -2
0 -7 -4 -10 -10z"/>
<path d="M9050 2886 c0 -16 26 -46 41 -46 12 0 11 4 -3 35 -12 27 -38 34 -38
11z"/>
<path d="M320 2887 c0 -11 79 -47 84 -39 9 16 -11 33 -47 39 -20 3 -37 3 -37
0z"/>
<path d="M1341 2869 c-13 -11 -21 -22 -19 -25 11 -11 73 13 76 29 5 23 -27 21
-57 -4z"/>
<path d="M806 2862 c-3 -5 6 -14 20 -21 33 -15 44 -14 44 4 0 8 -6 15 -14 15
-8 0 -21 3 -29 6 -8 3 -18 1 -21 -4z"/>
<path d="M8960 2826 c0 -26 21 -29 43 -7 l21 21 -32 0 c-21 0 -32 -5 -32 -14z"/>
<path d="M265 2800 c-17 -6 -15 -9 15 -14 19 -3 43 -5 53 -3 13 1 22 -9 32
-36 7 -21 13 -41 14 -45 1 -6 7 -7 30 -3 19 3 19 31 0 55 -11 14 -18 30 -15
35 13 20 -86 29 -129 11z"/>
<path d="M2080 2784 c0 -8 5 -12 10 -9 6 3 10 10 10 16 0 5 -4 9 -10 9 -5 0
-10 -7 -10 -16z"/>
<path d="M1311 2764 c0 -11 3 -14 6 -6 3 7 2 16 -1 19 -3 4 -6 -2 -5 -13z"/>
<path d="M532 2758 c-7 -7 -12 -18 -12 -24 0 -15 48 -74 61 -74 5 0 18 -9 29
-20 11 -11 29 -20 40 -20 11 0 20 -5 20 -12 0 -6 3 -8 7 -5 8 9 -29 78 -69
130 -30 38 -55 46 -76 25z"/>
<path d="M1954 2695 c9 -58 38 -112 44 -82 5 25 -20 106 -37 120 -12 10 -13 4
-7 -38z"/>
<path d="M1438 2686 c-7 -38 4 -49 36 -36 15 5 31 8 35 6 4 -3 13 -1 21 4 23
14 -16 50 -55 50 -27 0 -34 -5 -37 -24z"/>
<path d="M10535 2680 c-3 -5 1 -10 10 -10 9 0 13 5 10 10 -3 6 -8 10 -10 10
-2 0 -7 -4 -10 -10z"/>
<path d="M8195 2609 c-22 -20 -50 -41 -62 -48 -18 -9 -23 -20 -23 -51 0 -34 3
-40 22 -40 21 0 21 0 2 15 -19 14 -18 15 6 35 14 11 32 20 41 20 22 0 61 57
57 83 -3 20 -5 20 -43 -14z"/>
<path d="M2320 2581 c0 -12 5 -21 10 -21 6 0 10 6 10 14 0 8 -4 18 -10 21 -5
3 -10 -3 -10 -14z"/>
<path d="M856 2574 c-9 -9 -14 -19 -11 -22 3 -3 13 2 22 11 9 9 14 19 11 22
-3 3 -13 -2 -22 -11z"/>
<path d="M765 2560 c3 -5 10 -10 16 -10 5 0 9 5 9 10 0 6 -7 10 -16 10 -8 0
-12 -4 -9 -10z"/>
<path d="M9780 2500 c0 -5 5 -10 10 -10 6 0 10 5 10 10 0 6 -4 10 -10 10 -5 0
-10 -4 -10 -10z"/>
<path d="M8454 2486 c-21 -16 -19 -22 11 -28 14 -2 21 3 23 20 4 25 -6 28 -34
8z"/>
<path d="M9835 2490 c3 -5 8 -10 11 -10 2 0 4 5 4 10 0 6 -5 10 -11 10 -5 0
-7 -4 -4 -10z"/>
<path d="M10405 2489 c-4 -6 -4 -13 -1 -16 8 -8 36 5 36 17 0 13 -27 13 -35
-1z"/>
<path d="M9137 2453 c-3 -5 -7 -26 -8 -48 -3 -31 0 -40 14 -43 22 -4 31 19 23
63 -6 33 -19 45 -29 28z"/>
<path d="M8196 2441 c-3 -5 1 -14 8 -20 16 -13 32 2 21 19 -8 12 -22 13 -29 1z"/>
<path d="M3112 2418 c6 -18 52 -33 73 -24 14 5 15 9 5 21 -15 19 -84 21 -78 3z"/>
<path d="M10399 2414 c-11 -14 -10 -18 6 -30 22 -16 35 -18 35 -4 0 6 -6 10
-14 10 -9 0 -12 7 -9 20 6 24 0 26 -18 4z"/>
<path d="M524 2359 c-13 -15 -26 -19 -45 -15 -41 8 -89 -50 -58 -70 20 -12
159 -14 159 -2 0 6 16 33 35 59 l35 49 -53 0 c-42 0 -58 -5 -73 -21z"/>
<path d="M9678 2355 c2 -14 8 -25 13 -25 5 0 9 11 9 25 0 14 -6 25 -14 25 -9
0 -12 -8 -8 -25z"/>
<path d="M1846 2354 c-8 -22 -8 -24 8 -24 12 0 26 20 26 36 0 12 -29 2 -34
-12z"/>
<path d="M1802 2349 c2 -7 10 -15 17 -17 8 -3 12 1 9 9 -2 7 -10 15 -17 17 -8
3 -12 -1 -9 -9z"/>
<path d="M10275 2300 c-8 -12 20 -24 35 -15 6 3 8 11 5 16 -8 12 -32 12 -40
-1z"/>
<path d="M1162 2281 c2 -7 7 -12 11 -12 12 1 9 15 -3 20 -7 2 -11 -2 -8 -8z"/>
<path d="M7756 2264 c-7 -19 2 -37 15 -29 12 8 12 45 0 45 -5 0 -12 -7 -15
-16z"/>
<path d="M10540 2258 c0 -7 7 -21 14 -31 18 -23 31 -5 16 23 -12 22 -30 27
-30 8z"/>
<path d="M9098 2253 c7 -3 16 -2 19 1 4 3 -2 6 -13 5 -11 0 -14 -3 -6 -6z"/>
<path d="M9550 2241 c0 -12 5 -21 10 -21 6 0 10 6 10 14 0 8 -4 18 -10 21 -5
3 -10 -3 -10 -14z"/>
<path d="M1124 2196 c-3 -8 -3 -19 0 -25 4 -6 -5 -6 -26 -1 -37 11 -68 -9 -68
-44 0 -12 -4 -28 -9 -36 -16 -24 -2 -31 29 -15 20 10 31 12 35 4 4 -6 13 -8
21 -5 8 3 14 1 14 -4 0 -21 21 -9 32 18 14 32 17 72 6 72 -4 0 -8 9 -8 19 0
25 -18 37 -26 17z"/>
<path d="M3065 2200 c4 -6 11 -8 16 -5 14 9 11 15 -7 15 -8 0 -12 -5 -9 -10z"/>
<path d="M9237 2153 c-14 -13 -6 -23 18 -23 18 0 25 -5 25 -20 0 -23 13 -26
29 -6 9 11 5 18 -22 35 -38 23 -41 24 -50 14z"/>
<path d="M10383 2153 c-7 -2 -13 -16 -13 -30 0 -35 34 -27 38 10 3 27 -1 30
-25 20z"/>
<path d="M9905 2140 c3 -5 8 -10 11 -10 2 0 4 5 4 10 0 6 -5 10 -11 10 -5 0
-7 -4 -4 -10z"/>
<path d="M712 2100 c-7 -11 -18 -20 -26 -20 -23 0 -29 -33 -9 -48 12 -10 13
-13 3 -9 -30 9 -50 -12 -50 -53 0 -21 6 -41 13 -43 11 -5 -26 -11 -50 -8 -21
3 -83 -63 -93 -99 -14 -48 -13 -70 4 -70 18 0 49 48 43 65 -8 18 13 35 42 36
28 1 56 16 117 64 22 18 49 30 67 30 47 0 54 24 23 74 -20 31 -32 42 -46 38
-16 -4 -18 0 -13 29 6 38 -6 45 -25 14z"/>
<path d="M873 2055 c-8 -24 7 -35 46 -35 20 0 42 -5 49 -12 9 -9 15 -9 24 0
17 17 3 27 -60 45 -45 13 -54 13 -59 2z"/>
<path d="M1748 2052 c-22 -4 -24 -32 -3 -32 9 0 18 7 22 15 7 19 3 22 -19 17z"/>
<path d="M7675 2050 c3 -5 10 -10 16 -10 5 0 9 5 9 10 0 6 -7 10 -16 10 -8 0
-12 -4 -9 -10z"/>
<path d="M9070 2050 c0 -5 4 -10 9 -10 6 0 13 5 16 10 3 6 -1 10 -9 10 -9 0
-16 -4 -16 -10z"/>
<path d="M300 2044 c0 -3 5 -15 12 -27 11 -21 11 -21 18 -2 4 11 2 23 -4 27
-13 9 -26 10 -26 2z"/>
<path d="M2150 2030 c0 -5 5 -10 10 -10 6 0 10 5 10 10 0 6 -4 10 -10 10 -5 0
-10 -4 -10 -10z"/>
<path d="M7970 2031 c0 -5 6 -14 14 -20 16 -13 32 2 21 19 -8 12 -35 13 -35 1z"/>
<path d="M8370 2024 c0 -8 5 -12 10 -9 6 4 8 11 5 16 -9 14 -15 11 -15 -7z"/>
<path d="M7423 1988 c-12 -15 1 -58 17 -58 14 0 13 17 -2 24 -7 3 0 4 15 1 33
-7 33 10 0 32 -16 11 -22 11 -30 1z"/>
<path d="M7954 1928 c-26 -58 -24 -148 4 -178 l20 -22 12 22 c6 12 9 28 6 35
-3 8 -1 17 5 20 20 13 39 65 30 82 -5 10 -13 31 -18 48 -13 45 -37 43 -59 -7z"/>
<path d="M9666 1950 c22 -22 54 -18 54 6 0 9 -12 14 -37 14 l-37 0 20 -20z"/>
<path d="M856 1914 c-12 -30 -6 -91 10 -104 12 -11 18 -11 30 2 19 18 26 100
10 110 -19 13 -44 9 -50 -8z"/>
<path d="M9778 1923 c7 -3 16 -2 19 1 4 3 -2 6 -13 5 -11 0 -14 -3 -6 -6z"/>
<path d="M8165 1910 c-3 -6 1 -13 10 -16 19 -8 30 0 20 15 -8 14 -22 14 -30 1z"/>
<path d="M9220 1838 c-18 -39 -26 -78 -15 -78 18 0 76 37 81 52 6 20 -19 68
-36 68 -5 0 -19 -19 -30 -42z"/>
<path d="M10493 1873 c-7 -2 -13 -13 -13 -24 0 -10 6 -19 13 -19 22 0 40 18
34 34 -7 16 -13 18 -34 9z"/>
<path d="M1070 1851 c-35 -10 -32 -33 5 -36 17 -2 35 -4 40 -6 6 -2 20 6 32
18 18 18 19 22 6 27 -18 7 -50 6 -83 -3z"/>
<path d="M2144 1846 c-4 -10 -2 -22 4 -28 8 -8 13 -7 18 6 4 10 2 22 -4 28 -8
8 -13 7 -18 -6z"/>
<path d="M8382 1838 c-15 -19 -19 -50 -6 -55 14 -5 47 44 39 57 -8 14 -21 12
-33 -2z"/>
<path d="M17 1817 c-3 -8 -1 -20 4 -28 6 -10 9 -7 9 14 0 29 -5 35 -13 14z"/>
<path d="M2910 1801 c0 -14 29 -41 45 -41 18 0 30 19 19 30 -14 12 -64 21 -64
11z"/>
<path d="M4110 1800 c0 -5 5 -10 10 -10 6 0 10 5 10 10 0 6 -4 10 -10 10 -5 0
-10 -4 -10 -10z"/>
<path d="M7457 1796 c-16 -12 -24 -46 -11 -46 15 0 44 22 44 35 0 21 -13 25
-33 11z"/>
<path d="M727 1758 c-46 -10 -48 -11 -42 -40 4 -16 2 -35 -5 -43 -7 -9 -8 -24
-2 -47 7 -27 13 -32 32 -30 32 3 35 8 23 35 -27 55 -20 93 12 67 11 -9 18 -10
29 -1 10 8 21 9 42 1 52 -20 65 7 26 53 -17 19 -42 20 -115 5z"/>
<path d="M183 1745 c-3 -9 -3 -18 0 -21 9 -9 27 6 27 22 0 19 -19 18 -27 -1z"/>
<path d="M6398 1703 c7 -3 16 -2 19 1 4 3 -2 6 -13 5 -11 0 -14 -3 -6 -6z"/>
<path d="M367 1686 c-26 -9 -32 -26 -11 -33 13 -4 59 33 48 39 -5 3 -21 0 -37
-6z"/>
<path d="M3662 1678 c-26 -16 -30 -23 -21 -34 6 -8 25 -14 43 -13 17 0 56 -1
87 -3 l56 -3 -20 27 c-16 22 -29 28 -57 28 -20 0 -40 4 -45 9 -6 5 -24 0 -43
-11z"/>
<path d="M10750 1690 c0 -5 5 -10 10 -10 6 0 10 5 10 10 0 6 -4 10 -10 10 -5
0 -10 -4 -10 -10z"/>
<path d="M1784 1675 c-4 -8 -3 -23 1 -32 6 -17 7 -17 21 1 8 11 14 26 14 33 0
18 -29 16 -36 -2z"/>
<path d="M8550 1677 c0 -27 40 -109 51 -105 6 2 19 27 29 55 17 47 17 52 2 51
-10 0 -32 3 -49 7 -26 6 -33 4 -33 -8z"/>
<path d="M3050 1661 c-13 -25 -9 -71 6 -71 7 0 15 11 18 25 3 13 15 29 26 35
29 16 24 30 -10 30 -19 0 -33 -7 -40 -19z"/>
<path d="M9271 1646 c-13 -15 -6 -56 9 -56 12 0 22 52 12 62 -5 5 -14 3 -21
-6z"/>
<path d="M4054 1636 c-16 -42 28 -74 61 -46 18 15 10 30 -16 30 -10 0 -19 7
-19 15 0 19 -19 20 -26 1z"/>
<path d="M100 1630 c0 -5 9 -10 20 -10 11 0 20 5 20 10 0 6 -9 10 -20 10 -11
0 -20 -4 -20 -10z"/>
<path d="M6565 1614 c-14 -22 -15 -28 -4 -35 20 -13 29 -11 35 6 9 23 41 18
47 -7 l6 -21 20 24 20 24 -20 18 c-33 27 -83 22 -104 -9z"/>
<path d="M4540 1616 c0 -10 9 -16 21 -16 24 0 21 23 -4 28 -10 2 -17 -3 -17
-12z"/>
<path d="M7555 1620 c3 -5 13 -10 21 -10 8 0 14 5 14 10 0 6 -9 10 -21 10 -11
0 -17 -4 -14 -10z"/>
<path d="M1301 1591 c-73 -31 -85 -46 -44 -54 20 -4 29 -12 30 -27 1 -11 18
-36 38 -56 26 -25 35 -41 32 -56 -5 -19 -2 -20 34 -14 28 4 39 3 40 -6 0 -7 5
-2 10 11 12 30 -1 41 -48 41 -26 0 -33 4 -33 20 0 11 4 20 10 20 14 0 64 -24
72 -34 3 -5 11 9 17 31 17 64 -5 100 -56 94 -19 -3 -16 26 3 33 22 9 24 8 18
-9 -4 -8 -1 -15 5 -15 6 0 11 10 11 23 0 19 -6 22 -38 23 -21 1 -65 -10 -101
-25z m102 -88 c-7 -2 -21 -2 -30 0 -10 3 -4 5 12 5 17 0 24 -2 18 -5z"/>
<path d="M5375 1610 c3 -5 15 -10 25 -10 10 0 22 5 25 10 4 6 -7 10 -25 10
-18 0 -29 -4 -25 -10z"/>
<path d="M6825 1610 c-3 -5 -1 -10 4 -10 6 0 11 5 11 10 0 6 -2 10 -4 10 -3 0
-8 -4 -11 -10z"/>
<path d="M7952 1599 c-17 -6 -22 -15 -20 -31 3 -25 12 -26 84 -10 60 13 71 22
49 39 -21 15 -79 16 -113 2z"/>
<path d="M7253 1584 c-14 -6 -18 -44 -5 -44 18 0 62 26 59 35 -4 11 -36 16
-54 9z"/>
<path d="M5298 1573 c-10 -2 -18 -9 -18 -13 0 -5 -13 -16 -30 -25 -34 -18 -38
-35 -12 -58 29 -27 61 -22 68 11 4 15 13 36 20 47 26 38 17 50 -28 38z"/>
<path d="M491 1556 c-10 -11 -7 -19 10 -35 13 -12 29 -21 36 -21 19 0 16 34
-5 53 -23 21 -26 21 -41 3z"/>
<path d="M3842 1558 c2 -6 10 -14 16 -16 7 -2 10 2 6 12 -7 18 -28 22 -22 4z"/>
<path d="M9434 1545 c-11 -28 13 -65 41 -65 52 0 83 34 53 57 -7 6 -30 13 -51
17 -29 6 -39 4 -43 -9z"/>
<path d="M30 1541 c0 -10 30 -24 37 -17 3 3 2 9 -2 15 -8 13 -35 15 -35 2z"/>
<path d="M2070 1540 c0 -5 5 -10 10 -10 6 0 10 5 10 10 0 6 -4 10 -10 10 -5 0
-10 -4 -10 -10z"/>
<path d="M4251 1534 c-30 -7 -67 -10 -82 -7 -59 11 -42 -48 21 -73 22 -9 42
-24 45 -35 5 -13 16 -19 38 -19 18 0 37 4 43 8 14 9 13 134 -1 138 -5 1 -35
-4 -64 -12z"/>
<path d="M6610 1536 c0 -7 6 -19 14 -25 21 -17 30 4 10 23 -19 20 -24 20 -24
2z"/>
<path d="M328 1532 c-10 -2 -18 -8 -18 -13 0 -13 27 -11 35 2 9 13 4 16 -17
11z"/>
<path d="M10624 1519 c-13 -22 12 -30 31 -9 18 19 18 20 -3 20 -11 0 -24 -5
-28 -11z"/>
<path d="M135 1509 c-9 -14 -2 -20 14 -10 8 6 9 11 3 15 -6 3 -14 1 -17 -5z"/>
<path d="M5948 1513 c-13 -3 -18 -15 -18 -39 0 -19 -4 -34 -10 -34 -5 0 -10
-4 -10 -9 0 -13 47 11 47 23 0 6 4 23 8 39 4 15 6 26 4 26 -2 -1 -12 -3 -21
-6z"/>
<path d="M8137 1514 c-10 -10 22 -64 37 -64 7 0 20 7 27 16 11 14 10 19 -10
35 -24 19 -43 24 -54 13z"/>
<path d="M3917 1485 c-10 -14 -16 -29 -13 -34 10 -15 46 0 46 18 0 9 5 22 12
29 9 9 8 12 -7 12 -11 0 -28 -12 -38 -25z"/>
<path d="M6683 1486 c-11 -12 -51 -31 -89 -44 -55 -17 -74 -29 -92 -56 -13
-19 -21 -40 -17 -45 10 -17 45 -13 45 4 0 20 63 20 94 0 18 -12 29 -13 51 -5
16 6 34 9 42 6 18 -7 18 102 0 137 l-13 25 -21 -22z"/>
<path d="M7478 1496 c-27 -20 -22 -28 14 -24 22 2 34 9 36 21 4 21 -25 23 -50
3z"/>
<path d="M9048 1502 c-21 -4 -24 -32 -4 -32 21 0 46 11 46 20 0 11 -21 17 -42
12z"/>
<path d="M3798 1469 c-23 -40 -23 -48 6 -83 21 -27 26 -29 57 -20 29 8 34 14
34 39 0 22 -7 33 -27 43 -15 7 -30 21 -33 32 -9 27 -17 25 -37 -11z"/>
<path d="M18 1469 c-10 -10 -18 -27 -18 -37 0 -19 59 -82 77 -82 6 0 18 -11
27 -25 18 -28 41 -33 50 -10 8 21 -3 44 -26 56 -10 6 -18 18 -16 27 4 25 -10
42 -36 42 -27 0 -46 18 -39 36 7 18 2 17 -19 -7z"/>
<path d="M6060 1475 c-10 -12 -10 -15 4 -15 9 0 16 7 16 15 0 8 -2 15 -4 15
-2 0 -9 -7 -16 -15z"/>
<path d="M5847 1463 c-4 -3 -7 -12 -7 -20 0 -11 4 -11 20 -3 11 6 18 15 15 21
-7 11 -19 12 -28 2z"/>
<path d="M6196 1443 c-25 -26 -26 -26 -46 -8 -11 10 -23 15 -27 11 -4 -4 3
-16 17 -26 24 -19 24 -20 4 -20 -31 0 -36 -11 -13 -28 15 -10 18 -17 10 -25
-15 -15 -14 -37 3 -37 7 0 19 7 26 15 8 10 26 15 49 13 l36 -3 -2 45 c-3 58
-11 90 -23 90 -5 0 -20 -12 -34 -27z"/>
<path d="M2006 1418 c-20 -28 -20 -38 -2 -38 7 0 16 8 20 18 3 9 9 23 12 30
10 21 -14 13 -30 -10z"/>
<path d="M7167 1423 c-13 -12 -7 -23 13 -23 11 0 20 7 20 15 0 15 -21 21 -33
8z"/>
<path d="M7370 1410 c-12 -8 -10 -10 8 -10 13 0 20 4 17 10 -7 12 -6 12 -25 0z"/>
<path d="M3568 1378 c9 -9 15 -9 24 0 9 9 7 12 -12 12 -19 0 -21 -3 -12 -12z"/>
<path d="M4810 1351 c-35 -45 -35 -47 -15 -55 25 -9 45 4 60 41 18 43 18 40 0
46 -9 4 -26 -9 -45 -32z"/>
<path d="M9465 1360 c-3 -5 1 -10 9 -10 9 0 16 5 16 10 0 6 -4 10 -9 10 -6 0
-13 -4 -16 -10z"/>
<path d="M5950 1345 c-10 -12 -10 -15 4 -15 9 0 16 7 16 15 0 8 -2 15 -4 15
-2 0 -9 -7 -16 -15z"/>
<path d="M6920 1340 c-21 -21 -21 -22 -4 -41 25 -27 88 -23 92 6 3 28 -8 42
-40 50 -20 5 -32 1 -48 -15z"/>
<path d="M6735 1330 c-3 -6 1 -13 10 -16 19 -8 30 0 20 15 -8 14 -22 14 -30 1z"/>
<path d="M7252 1323 c2 -11 14 -19 31 -21 26 -3 27 -2 15 17 -16 26 -51 28
-46 4z"/>
<path d="M321 1314 c0 -11 3 -14 6 -6 3 7 2 16 -1 19 -3 4 -6 -2 -5 -13z"/>
<path d="M5387 1244 c-19 -52 -12 -74 40 -129 15 -16 26 -38 25 -50 -2 -12 10
-33 32 -54 l35 -34 7 38 c4 21 2 46 -4 58 -6 12 -18 54 -27 92 -13 55 -24 76
-49 97 -17 15 -33 27 -36 28 -3 0 -13 -21 -23 -46z"/>
<path d="M9000 1271 c15 -29 12 -67 -6 -82 -14 -12 -13 -14 7 -21 30 -12 86 8
94 33 10 31 -14 81 -35 74 -10 -3 -29 -1 -44 5 -24 9 -26 8 -16 -9z m40 -37
c0 -8 -5 -12 -10 -9 -6 4 -8 11 -5 16 9 14 15 11 15 -7z"/>
<path d="M3284 1265 c-8 -21 3 -47 19 -43 6 3 13 14 15 25 4 24 -26 40 -34 18z"/>
<path d="M5080 1270 c0 -5 5 -10 10 -10 6 0 10 5 10 10 0 6 -4 10 -10 10 -5 0
-10 -4 -10 -10z"/>
<path d="M1857 1263 c-11 -10 -8 -41 4 -49 16 -10 29 9 23 34 -6 22 -15 27
-27 15z"/>
<path d="M8889 1246 c-16 -35 -5 -56 28 -55 l28 1 -25 7 c-22 6 -23 8 -7 14
12 4 17 15 15 29 -4 31 -26 34 -39 4z"/>
<path d="M10068 1206 c-36 -45 -37 -88 -2 -115 34 -26 66 -29 36 -3 -20 16
-20 20 -7 50 10 23 21 32 37 32 13 0 29 9 35 19 10 16 8 22 -12 35 -36 24 -57
20 -87 -18z"/>
<path d="M4260 1204 c-15 -37 -12 -137 4 -159 15 -21 46 -14 46 11 0 10 11 37
25 60 24 41 25 46 11 73 -13 24 -40 40 -69 41 -4 0 -12 -12 -17 -26z"/>
<path d="M9165 1200 c-3 -5 -1 -10 4 -10 6 0 11 5 11 10 0 6 -2 10 -4 10 -3 0
-8 -4 -11 -10z"/>
<path d="M1158 1183 c7 -3 16 -2 19 1 4 3 -2 6 -13 5 -11 0 -14 -3 -6 -6z"/>
<path d="M4978 1173 c-41 -17 -48 -29 -20 -37 31 -10 77 8 80 32 4 26 -8 27
-60 5z"/>
<path d="M2040 1146 c-11 -35 -7 -285 6 -332 3 -12 -1 -25 -9 -33 -12 -9 -14
-29 -10 -94 3 -45 12 -93 19 -107 l13 -25 1 31 c0 17 8 57 19 90 15 50 18 88
16 244 -1 119 -6 193 -14 207 -6 12 -10 27 -9 34 2 6 -2 13 -9 16 -6 2 -16
-12 -23 -31z"/>
<path d="M580 1158 c0 -18 18 -34 28 -24 3 4 -2 14 -11 23 -16 16 -17 16 -17
1z"/>
<path d="M1628 1148 c-24 -38 -29 -60 -17 -74 15 -18 61 -18 105 1 41 17 41
42 0 37 -22 -3 -28 2 -37 27 -13 37 -31 40 -51 9z"/>
<path d="M9107 1163 c-15 -14 -6 -24 16 -18 35 11 44 25 16 25 -14 0 -29 -3
-32 -7z"/>
<path d="M10160 1145 c0 -9 -7 -18 -15 -21 -17 -7 -20 -30 -4 -39 10 -7 69 50
69 67 0 4 -11 8 -25 8 -16 0 -25 -6 -25 -15z"/>
<path d="M70 1136 c0 -9 12 -23 26 -33 14 -9 30 -27 35 -40 11 -30 23 -29 48
4 l21 26 -31 27 c-37 30 -99 40 -99 16z"/>
<path d="M1495 1120 c3 -5 10 -10 16 -10 5 0 9 5 9 10 0 6 -7 10 -16 10 -8 0
-12 -4 -9 -10z"/>
<path d="M5605 1110 c-18 -8 -17 -9 8 -9 16 -1 26 3 22 9 -3 6 -7 10 -8 9 -1
0 -11 -4 -22 -9z"/>
<path d="M6140 1110 c0 -5 5 -10 10 -10 6 0 10 5 10 10 0 6 -4 10 -10 10 -5 0
-10 -4 -10 -10z"/>
<path d="M8230 1110 c8 -5 24 -10 35 -10 17 0 17 2 5 10 -8 5 -24 10 -35 10
-17 0 -17 -2 -5 -10z"/>
<path d="M2610 1100 c0 -5 5 -10 10 -10 6 0 10 5 10 10 0 6 -4 10 -10 10 -5 0
-10 -4 -10 -10z"/>
<path d="M9250 1100 c0 -5 7 -10 15 -10 8 0 15 5 15 10 0 6 -7 10 -15 10 -8 0
-15 -4 -15 -10z"/>
<path d="M3156 1029 c-3 -40 -4 -74 -2 -76 12 -12 37 62 34 99 -5 70 -24 56
-32 -23z"/>
<path d="M3886 1091 c-3 -5 0 -14 8 -20 10 -8 16 -8 25 2 6 8 8 17 4 20 -9 10
-31 9 -37 -2z"/>
<path d="M6419 1080 c24 -21 61 -27 61 -10 0 13 -34 30 -62 30 l-23 -1 24 -19z"/>
<path d="M10378 1083 c7 -3 16 -2 19 1 4 3 -2 6 -13 5 -11 0 -14 -3 -6 -6z"/>
<path d="M4550 1065 c0 -16 27 -32 37 -21 7 7 -16 36 -28 36 -5 0 -9 -7 -9
-15z"/>
<path d="M8760 1050 c-13 -25 3 -59 28 -58 9 0 24 -2 32 -6 9 -4 20 1 28 14 7
12 8 20 2 20 -5 0 -10 -4 -10 -10 0 -5 -7 -10 -16 -10 -13 0 -14 3 -4 15 6 8
9 23 5 35 -8 27 -51 27 -65 0z"/>
<path d="M4381 1044 c13 -16 29 -19 29 -5 0 5 -9 11 -21 14 -16 4 -18 3 -8 -9z"/>
<path d="M4865 1050 c-3 -5 -1 -10 4 -10 6 0 11 5 11 10 0 6 -2 10 -4 10 -3 0
-8 -4 -11 -10z"/>
<path d="M3058 1013 c-10 -2 -18 -9 -18 -15 0 -6 -7 -19 -16 -29 -16 -18 -13
-49 5 -49 18 0 71 59 71 79 0 21 -8 23 -42 14z"/>
<path d="M8940 989 c0 -5 5 -7 10 -4 6 3 10 8 10 11 0 2 -4 4 -10 4 -5 0 -10
-5 -10 -11z"/>
<path d="M1398 963 c10 -4 8 -11 -9 -29 -12 -13 -19 -30 -16 -38 9 -23 26 -19
39 9 6 13 19 27 30 30 25 8 23 21 -4 29 -29 7 -59 7 -40 -1z"/>
<path d="M3986 934 c-18 -17 -20 -42 -7 -63 7 -11 14 -8 35 15 14 16 26 37 26
47 0 22 -33 23 -54 1z"/>
<path d="M7771 922 c-1 -13 -5 -20 -11 -17 -5 3 -10 2 -10 -4 0 -5 6 -13 13
-18 18 -11 97 -15 97 -4 0 6 -17 11 -37 13 -30 2 -39 8 -44 28 -7 24 -7 25 -8
2z"/>
<path d="M1230 910 c0 -13 5 -20 13 -17 6 2 12 10 12 17 0 7 -6 15 -12 18 -8
2 -13 -5 -13 -18z"/>
<path d="M7520 920 c0 -5 5 -10 11 -10 5 0 7 5 4 10 -3 6 -8 10 -11 10 -2 0
-4 -4 -4 -10z"/>
<path d="M7562 898 c-8 -8 -8 -15 -1 -24 14 -17 39 -6 39 17 0 21 -20 25 -38
7z"/>
<path d="M10264 875 c-9 -14 -14 -28 -12 -31 11 -10 58 20 58 38 0 26 -27 22
-46 -7z"/>
<path d="M7187 883 c-14 -13 -6 -24 15 -21 27 4 36 28 11 28 -11 0 -23 -3 -26
-7z"/>
<path d="M8828 883 c7 -3 16 -2 19 1 4 3 -2 6 -13 5 -11 0 -14 -3 -6 -6z"/>
<path d="M9458 883 c7 -3 16 -2 19 1 4 3 -2 6 -13 5 -11 0 -14 -3 -6 -6z"/>
<path d="M1248 849 c-6 -15 9 -50 26 -61 33 -23 35 10 2 48 -17 21 -24 24 -28
13z"/>
<path d="M3150 847 c0 -19 10 -27 25 -20 17 6 8 33 -11 33 -8 0 -14 -6 -14
-13z"/>
<path d="M4525 840 c3 -5 8 -10 11 -10 2 0 4 5 4 10 0 6 -5 10 -11 10 -5 0 -7
-4 -4 -10z"/>
<path d="M980 760 c0 -11 5 -20 10 -20 6 0 10 9 10 20 0 11 -4 20 -10 20 -5 0
-10 -9 -10 -20z"/>
<path d="M3160 760 c0 -5 7 -7 15 -4 8 4 15 8 15 10 0 2 -7 4 -15 4 -8 0 -15
-4 -15 -10z"/>
<path d="M5840 750 c0 -5 4 -10 9 -10 6 0 13 5 16 10 3 6 -1 10 -9 10 -9 0
-16 -4 -16 -10z"/>
<path d="M6660 745 c12 -15 30 -12 30 6 0 5 -10 9 -21 9 -18 0 -19 -2 -9 -15z"/>
<path d="M8550 736 c0 -9 7 -16 16 -16 9 0 14 5 12 12 -6 18 -28 21 -28 4z"/>
<path d="M9208 733 c-8 -10 -21 -28 -27 -41 -11 -20 -9 -27 13 -49 14 -14 30
-22 37 -18 8 6 8 10 -2 16 -11 6 -10 9 4 15 20 7 23 52 4 78 -12 16 -13 16
-29 -1z"/>
<path d="M5717 698 c7 -57 15 -63 44 -32 l24 26 -28 24 c-39 33 -46 30 -40
-18z"/>
<path d="M8480 730 c0 -5 4 -10 9 -10 6 0 13 5 16 10 3 6 -1 10 -9 10 -9 0
-16 -4 -16 -10z"/>
<path d="M8376 695 c-38 -32 -39 -33 -18 -44 19 -10 23 -8 38 21 9 18 21 36
26 39 6 4 6 9 2 12 -5 3 -27 -10 -48 -28z"/>
<path d="M9914 716 c-3 -8 -23 -18 -45 -21 -30 -5 -39 -11 -37 -23 3 -12 14
-17 41 -17 20 0 37 -3 37 -7 0 -5 5 -8 12 -8 9 0 9 3 0 12 -18 18 -15 26 11
30 14 2 22 10 22 23 0 24 -33 33 -41 11z"/>
<path d="M10405 700 c3 -5 13 -10 21 -10 8 0 12 5 9 10 -3 6 -13 10 -21 10 -8
0 -12 -4 -9 -10z"/>
<path d="M1156 665 c-3 -9 0 -15 9 -15 8 0 15 7 15 15 0 8 -4 15 -9 15 -5 0
-11 -7 -15 -15z"/>
<path d="M7227 663 c-13 -12 -7 -23 12 -23 26 0 35 16 15 24 -19 7 -19 7 -27
-1z"/>
<path d="M3845 650 c-3 -5 1 -10 9 -10 9 0 16 5 16 10 0 6 -4 10 -9 10 -6 0
-13 -4 -16 -10z"/>
<path d="M7009 641 c-21 -17 -22 -21 -9 -36 8 -10 14 -26 12 -36 -2 -9 2 -20
8 -24 6 -4 10 5 10 23 0 34 19 46 53 33 13 -5 30 -6 37 -1 18 11 4 42 -17 38
-10 -3 -30 1 -45 9 -23 11 -29 10 -49 -6z"/>
<path d="M10365 640 c-3 -5 -1 -10 4 -10 6 0 11 5 11 10 0 6 -2 10 -4 10 -3 0
-8 -4 -11 -10z"/>
<path d="M1120 626 c-42 -52 45 -96 99 -50 2 1 -7 17 -19 33 -23 34 -59 41
-80 17z"/>
<path d="M2940 630 c0 -5 7 -10 15 -10 8 0 15 5 15 10 0 6 -7 10 -15 10 -8 0
-15 -4 -15 -10z"/>
<path d="M6450 621 c0 -9 24 -21 41 -21 5 0 9 7 9 15 0 9 -9 15 -25 15 -14 0
-25 -4 -25 -9z"/>
<path d="M9810 620 c0 -5 5 -10 11 -10 5 0 7 5 4 10 -3 6 -8 10 -11 10 -2 0
-4 -4 -4 -10z"/>
<path d="M5808 613 c6 -2 18 -2 25 0 6 3 1 5 -13 5 -14 0 -19 -2 -12 -5z"/>
<path d="M10240 595 c0 -15 6 -25 14 -25 16 0 46 -42 46 -65 0 -24 38 -18 46
7 5 16 2 25 -11 33 -18 10 -38 29 -63 59 -19 23 -32 19 -32 -9z"/>
<path d="M6598 581 c-6 -10 -18 -17 -26 -14 -10 4 -13 -2 -10 -22 4 -38 19
-41 54 -10 16 14 35 30 42 36 7 6 10 14 7 20 -11 16 -54 10 -67 -10z"/>
<path d="M6069 539 c-11 -28 -10 -32 7 -42 10 -6 36 -13 57 -14 32 -4 38 -1
47 22 13 34 14 31 -17 43 -67 25 -80 24 -94 -9z"/>
<path d="M6800 540 c-16 -22 -19 -34 -11 -47 9 -16 11 -15 20 8 5 15 17 29 25
32 20 8 21 37 2 37 -8 0 -24 -13 -36 -30z"/>
<path d="M10410 560 c0 -5 7 -10 15 -10 9 0 15 -9 15 -22 0 -12 3 -19 6 -15
11 11 -6 57 -21 57 -8 0 -15 -4 -15 -10z"/>
<path d="M7063 553 c-25 -5 -32 -33 -9 -33 25 0 46 12 46 26 0 8 -3 13 -7 13
-5 -1 -18 -4 -30 -6z"/>
<path d="M9380 537 c0 -33 33 -45 56 -22 19 19 11 31 -28 40 -25 6 -28 4 -28
-18z"/>
<path d="M3356 534 c-8 -22 1 -31 16 -16 9 9 9 15 1 23 -7 7 -12 5 -17 -7z"/>
<path d="M5949 526 c16 -19 55 -22 49 -3 -3 6 -17 14 -33 15 -25 3 -27 2 -16
-12z"/>
<path d="M6292 498 c2 -13 13 -27 26 -33 12 -5 22 -13 22 -17 0 -5 7 -8 15 -8
21 0 19 6 -11 46 -31 39 -57 45 -52 12z"/>
<path d="M6903 513 c-19 -7 -16 -31 6 -43 26 -13 71 -13 71 1 0 5 -4 7 -10 4
-5 -3 -10 -1 -10 6 0 6 -8 18 -17 25 -19 14 -22 15 -40 7z"/>
<path d="M2166 494 c-9 -24 -7 -28 9 -14 17 14 20 30 6 30 -5 0 -12 -7 -15
-16z"/>
<path d="M9037 503 c-12 -11 -8 -23 8 -23 8 0 15 7 15 15 0 16 -12 20 -23 8z"/>
<path d="M3040 467 c0 -8 7 -17 15 -21 8 -3 15 -2 15 3 0 5 -7 14 -15 21 -12
10 -15 10 -15 -3z"/>
<path d="M5905 470 c-3 -5 -1 -10 4 -10 6 0 11 5 11 10 0 6 -2 10 -4 10 -3 0
-8 -4 -11 -10z"/>
<path d="M6834 465 c-4 -9 -3 -19 0 -23 9 -8 42 12 39 24 -4 16 -33 16 -39 -1z"/>
<path d="M2953 433 c9 -53 29 -71 62 -53 33 18 32 33 -6 64 -45 38 -63 35 -56
-11z"/>
<path d="M7940 466 c0 -9 30 -14 35 -6 4 6 -3 10 -14 10 -12 0 -21 -2 -21 -4z"/>
<path d="M6020 440 c0 -22 7 -25 29 -11 16 10 6 31 -15 31 -8 0 -14 -9 -14
-20z"/>
<path d="M9319 439 c-15 -29 3 -46 25 -24 9 9 16 23 16 31 0 21 -28 17 -41 -7z"/>
<path d="M3870 440 c0 -5 7 -10 16 -10 8 0 12 5 9 10 -3 6 -10 10 -16 10 -5 0
-9 -4 -9 -10z"/>
<path d="M8572 441 c-11 -7 -10 -10 3 -15 19 -7 35 0 35 15 0 11 -20 12 -38 0z"/>
<path d="M7872 413 c4 -39 28 -42 28 -4 0 21 -5 31 -16 31 -11 0 -14 -8 -12
-27z"/>
<path d="M10045 431 c-8 -15 3 -31 21 -31 9 0 14 7 12 17 -4 20 -24 28 -33 14z"/>
<path d="M246 421 c-4 -5 0 -13 8 -18 8 -4 16 -21 18 -38 3 -33 25 -40 42 -13
8 13 6 24 -10 45 -22 30 -48 40 -58 24z"/>
<path d="M3256 415 c-3 -9 0 -15 9 -15 8 0 15 7 15 15 0 8 -4 15 -9 15 -5 0
-11 -7 -15 -15z"/>
<path d="M2270 400 c0 -11 5 -20 10 -20 6 0 10 9 10 20 0 11 -4 20 -10 20 -5
0 -10 -9 -10 -20z"/>
<path d="M6895 401 c-3 -5 -1 -12 5 -16 5 -3 10 1 10 9 0 18 -6 21 -15 7z"/>
<path d="M6390 390 c0 -22 40 -30 75 -16 19 8 35 17 35 19 0 2 -25 5 -55 5
-30 0 -55 -4 -55 -8z"/>
<path d="M7463 385 c-3 -9 -18 -15 -34 -15 -44 0 -57 -35 -36 -101 10 -28 17
-57 17 -65 0 -7 8 -18 18 -23 16 -8 22 -3 39 33 14 29 33 48 56 60 20 9 36 24
37 34 0 9 1 33 3 52 l2 35 -48 2 c-34 1 -50 -2 -54 -12z"/>
<path d="M6855 379 c-10 -15 3 -25 16 -12 7 7 7 13 1 17 -6 3 -14 1 -17 -5z"/>
<path d="M630 370 c0 -5 5 -10 11 -10 5 0 7 5 4 10 -3 6 -8 10 -11 10 -2 0 -4
-4 -4 -10z"/>
<path d="M2301 348 c-12 -4 -21 -16 -21 -28 0 -17 6 -20 38 -20 37 0 72 22 72
46 0 12 -60 13 -89 2z"/>
<path d="M10535 340 c-4 -7 -2 -16 5 -20 10 -6 9 -9 -1 -13 -10 -3 -11 -8 -4
-15 19 -21 33 1 20 32 -8 20 -15 25 -20 16z"/>
<path d="M3490 316 c0 -9 5 -16 10 -16 6 0 10 4 10 9 0 6 -4 13 -10 16 -5 3
-10 -1 -10 -9z"/>
<path d="M3275 300 c3 -5 10 -10 16 -10 5 0 9 5 9 10 0 6 -7 10 -16 10 -8 0
-12 -4 -9 -10z"/>
<path d="M9489 254 c-26 -27 -24 -28 20 -13 33 12 40 24 17 32 -8 3 -24 -5
-37 -19z"/>
<path d="M6573 249 c4 -13 7 -27 7 -31 0 -11 30 -10 30 0 0 5 -3 12 -7 16 -5
4 -8 13 -8 19 0 5 -6 12 -14 15 -10 3 -12 -1 -8 -19z"/>
<path d="M5640 251 c-8 -5 -27 -14 -42 -22 -33 -15 -36 -41 -8 -69 11 -11 20
-29 20 -41 0 -17 2 -18 13 -7 6 7 20 29 30 48 10 19 24 46 32 59 7 14 12 29 9
33 -6 10 -34 9 -54 -1z"/>
<path d="M9106 243 c-14 -14 -4 -25 38 -43 43 -18 46 -18 80 -1 l35 18 -37 11
c-49 14 -109 22 -116 15z"/>
<path d="M3972 225 c-32 -14 -36 -35 -8 -35 8 0 19 -7 27 -16 11 -14 14 -13
25 8 17 30 17 58 2 58 -7 -1 -28 -7 -46 -15z"/>
<path d="M1090 211 c0 -18 58 -71 78 -71 5 0 16 7 23 16 12 15 11 19 -9 32
-12 8 -22 21 -22 28 0 9 -12 14 -35 14 -28 0 -35 -4 -35 -19z"/>
<path d="M4705 219 c-10 -14 -1 -21 19 -13 9 3 13 10 10 15 -7 12 -21 11 -29
-2z"/>
<path d="M4953 223 c-7 -2 -13 -13 -13 -24 0 -14 -10 -20 -40 -25 -28 -5 -49
-17 -70 -40 -23 -26 -38 -34 -67 -36 -36 -1 -37 -1 -6 -5 21 -3 34 -11 38 -24
9 -27 30 -24 55 8 20 26 60 45 129 63 18 5 38 13 43 18 14 14 1 32 -23 32 -12
0 -19 7 -19 20 0 20 -5 23 -27 13z"/>
<path d="M7733 223 c-18 -7 -16 -23 2 -23 8 0 19 -9 25 -20 6 -11 20 -20 30
-20 13 0 20 -7 20 -20 0 -13 7 -20 18 -20 23 0 42 19 42 43 0 16 -5 18 -29 14
-23 -5 -34 0 -55 23 -27 30 -31 32 -53 23z"/>
<path d="M8967 223 c-11 -10 30 -34 47 -27 20 8 20 20 0 28 -20 8 -39 8 -47
-1z"/>
<path d="M1845 196 c-13 -19 -14 -29 -5 -45 14 -28 34 -26 49 3 28 51 -13 90
-44 42z"/>
<path d="M5065 200 c-19 -21 -14 -50 10 -50 8 0 15 1 15 3 0 1 4 17 9 35 11
38 -5 44 -34 12z"/>
<path d="M8895 209 c-12 -19 5 -23 22 -6 16 16 16 17 1 17 -9 0 -20 -5 -23
-11z"/>
<path d="M691 198 c-1 -9 -8 -21 -17 -26 -11 -6 -13 -12 -6 -16 13 -8 35 30
28 47 -2 7 -5 4 -5 -5z"/>
<path d="M6352 191 c-31 -19 -58 -111 -33 -111 13 0 71 87 71 106 0 16 -18 18
-38 5z"/>
<path d="M330 144 c-12 -43 -12 -48 5 -60 24 -18 43 -17 75 1 37 21 47 18 59
-16 11 -32 15 -33 70 -18 9 2 17 -6 21 -21 5 -23 10 -25 75 -27 64 -3 68 -2
46 11 -13 7 -32 11 -42 9 -12 -4 -21 1 -25 13 -3 11 -10 27 -15 36 -5 10 -9
26 -9 35 -1 49 -41 68 -161 77 l-86 8 -13 -48z"/>
<path d="M3305 179 c18 -31 39 -49 58 -49 11 0 29 -8 39 -17 14 -12 21 -14 30
-5 8 8 7 13 -5 18 -9 3 -17 12 -17 20 0 17 -25 30 -74 39 -32 6 -37 5 -31 -6z"/>
<path d="M1777 174 c-8 -8 1 -24 14 -24 5 0 9 7 9 15 0 15 -12 20 -23 9z"/>
<path d="M2365 170 c-3 -5 -1 -10 4 -10 6 0 11 5 11 10 0 6 -2 10 -4 10 -3 0
-8 -4 -11 -10z"/>
<path d="M10425 157 c21 -70 25 -99 15 -117 -6 -11 -15 -20 -21 -20 -6 0 -7
-5 -4 -10 10 -16 55 -12 55 5 0 19 29 65 41 65 5 0 9 -18 9 -41 0 -28 4 -39
13 -37 15 6 22 58 8 58 -6 0 -11 13 -11 28 0 34 -34 69 -79 82 -31 9 -33 8
-26 -13z"/>
<path d="M1771 121 c-18 -12 -5 -31 20 -31 14 0 19 6 17 17 -4 20 -18 26 -37
14z"/>
<path d="M1672 79 c2 -19 8 -33 13 -31 15 3 12 55 -3 60 -10 3 -13 -5 -10 -29z"/>
<path d="M8830 82 c0 -10 41 -35 47 -28 9 8 -17 36 -33 36 -8 0 -14 -3 -14 -8z"/>
<path d="M3924 36 c-34 -31 -36 -36 -18 -36 12 0 28 7 35 16 10 12 24 15 56
10 70 -9 72 26 2 39 -32 6 -41 3 -75 -29z"/>
<path d="M4405 40 c3 -5 16 -10 28 -9 21 0 21 1 2 9 -28 12 -37 12 -30 0z"/>
<path d="M3202 28 c6 -18 28 -21 28 -4 0 9 -7 16 -16 16 -9 0 -14 -5 -12 -12z"/>
<path d="M6860 21 c0 -15 6 -21 21 -21 14 0 19 5 17 17 -5 26 -38 29 -38 4z"/>
<path d="M9760 30 c0 -5 7 -10 15 -10 8 0 15 5 15 10 0 6 -7 10 -15 10 -8 0
-15 -4 -15 -10z"/>
<path d="M880 20 c0 -5 5 -10 10 -10 6 0 10 5 10 10 0 6 -4 10 -10 10 -5 0
-10 -4 -10 -10z"/>
<path d="M4980 15 c-11 -13 -7 -15 26 -15 35 0 37 1 18 15 -24 18 -29 18 -44
0z"/>
<path d="M6233 23 c9 -2 23 -2 30 0 6 3 -1 5 -18 5 -16 0 -22 -2 -12 -5z"/>
<path d="M10330 16 c0 -11 9 -16 30 -16 17 0 30 5 30 10 0 6 -6 10 -14 10 -8
0 -21 3 -30 6 -11 4 -16 1 -16 -10z"/>
</g>
</svg>
